<?xml version="1.0" encoding="utf-8"?>
<!-- Generator: Adobe Illustrator 17.0.2, SVG Export Plug-In . SVG Version: 6.00 Build 0)  -->
<!DOCTYPE svg PUBLIC "-//W3C//DTD SVG 1.1//EN" "http://www.w3.org/Graphics/SVG/1.1/DTD/svg11.dtd">
<svg version="1.1" id="图层_1" xmlns="http://www.w3.org/2000/svg" xmlns:xlink="http://www.w3.org/1999/xlink" x="0px" y="0px"
	 width="400px" height="400px" viewBox="0 0 400 400" enable-background="new 0 0 400 400" xml:space="preserve">
<g>
	<path fill="#E4EBEF" d="M364.55,99.751c-2.236-2.889-5.007-5.314-7.699-7.669c-2.632-2.276-5.106-4.443-7.164-7.026
		c-0.02-0.059-3.76-5.067-3.76-5.067c-2.434-3.424-4.77-6.61-7.778-9.371c-2.058-1.85-4.315-3.235-6.511-4.562
		c-2.216-1.325-4.274-2.592-5.997-4.235l-3.443-4.146c-1.167-1.553-2.315-3.137-3.879-4.562c-2.89-2.593-5.957-3.949-9.223-5.403
		c-2.157-0.95-4.394-1.939-6.55-3.345c-1.94-1.256-3.702-2.83-5.523-4.453c-2.197-1.939-4.413-3.918-6.946-5.383
		c-5.463-3.177-11.578-4.285-17.001-5.245c-0.019,0-3.641-0.702-3.641-0.702c-0.336-0.04-0.633-0.189-0.891-0.406
		c-7.402-5.62-14.427-7.471-21.236-9.251l-1.742-0.465c0.178,0.039-5.76-0.97-5.76-0.97c-2.493-0.307-4.907-0.624-6.57-1.445
		c-1.702-0.881-3.028-1.92-4.294-2.929c-1.366-1.069-2.633-2.058-4.275-2.87c-11.558-5.621-27.292-5.769-42.056-0.356l-2.355,0.841
		c-2.969,1.059-5.997,2.137-8.53,3.433c0.079-0.04,0.139-0.059,0.198-0.098c0.139-0.099,0.178-0.297,0.278-0.436
		c-0.554,0.574-1.505,1.246-2.969,2.246c-0.02,0.01-1.287,0.92-1.287,0.92l-0.97,0.544c-1.207,0.485-2.75,0.525-4.413,0.604
		c0.119-0.01-4.037,0.415-4.532,0.465c-5.304,1.277-11.201,3.681-15.219,5.472c-0.02,0.02-8.214,3.553-8.214,3.553
		c-6.273,2.662-12.725,5.393-19.554,9.035c-0.098,0.06-5.937,2.731-5.937,2.731l-6.61,3.088c0.119-0.079-2.929,1.802-2.929,1.802
		c-3.523,2.335-6.867,5.115-10.113,7.817c-0.02,0.02-3.939,3.226-3.939,3.226l0.237-0.198l-1.643,1.346
		c-4.829,3.839-9.797,7.837-13.814,12.251c-4.651,5.067-8.707,11.34-12.646,17.416l-3.246,5.008c0-0.02-7.244,11.34-7.244,11.34
		c-0.04,0.069-3.76,5.383-3.76,5.383l-4.195,6.057c0.059-0.099,0.04-0.218,0.098-0.316c-0.336,0.821-0.93,2.019-1.939,4.096
		c0-0.019-1.564,3.216-1.564,3.216c-0.079,0.149-1.207,2.068-1.207,2.068c-3.424,5.859-6.373,10.905-7.936,17.515
		c-0.494,2.039-0.575,4.167-0.654,6.215c-0.079,2.217-0.158,4.236-0.653,5.997c-0.633,2.157-1.563,4.136-2.533,6.195
		c-1.168,2.553-2.415,5.185-3.088,8.213c-0.554,2.573-0.654,5.997-0.752,9.005l-0.02,0.435c0,0.159-0.494,4.641-0.494,4.641
		c0,0.01-0.515,4.661-0.515,4.661c-0.119,1.92,0.158,3.918,0.436,5.878c0,0.079,0.395,3.75,0.395,3.75
		c0.02,0.119,0.02,0.287,0,0.426l-0.256,3.899c-0.238,1.9-0.456,3.542-0.278,5.225c0.198,1.801,0.733,3.542,1.227,5.225
		c0.554,1.761,1.03,3.364,1.207,5.008c0.238,2.355-0.079,4.789-0.455,7.362c-0.356,2.612-0.712,5.264-0.494,7.897
		c0.257,3.474,1.425,8.372,2.849,11.914c1.188,3.008,2.929,5.601,4.592,8.115c0.019,0.04,2.612,4.097,2.612,4.097
		c4.473,7.748,6.986,15.476,9.658,23.63c2.454,7.58,4.987,15.388,9.144,22.78c2.909,5.225,6.67,9.44,10.291,13.517
		c2.791,3.147,5.343,6.036,7.461,9.223c0.06,0.119,3.939,6.749,3.939,6.749c2.236,4.107,4.531,8.302,7.56,11.152
		c1.959,1.871,4.097,3.077,5.957,4.156c0.04,0.03,1.444,0.851,1.444,0.851c-0.04-0.019-0.059-0.019-0.098-0.029
		c0.712,0.287,1.939,0.822,4.334,1.9l0,0c0,0.01,2.969,1.356,2.969,1.356c0.04,0.019,0.04,0.019,6.076,5.561
		c5.007,3.771,8.966,6.283,13.102,8.293c0.019-0.01,3.621,1.267,3.621,1.267l2.731,0.989c0.178,0.089,0.376,0.168,0.515,0.278
		l2.612,1.871c0,0,3.146,2.245,3.187,2.285l0.93,0.564c-0.06-0.029,5.58,3.117,5.58,3.117c11.835,5.502,23.077,9.253,35.248,11.717
		c0.178,0.05,0.377,0.119,0.535,0.177c8.906,4.385,19.533,6.887,31.587,7.412c0.019,0.029-0.317,0.05-0.317,0.05l3.998,0.218
		c2.533,0.187,5.125,0.415,7.48,0.267c0.575-0.138,1.505-0.347,3.326-0.742c-0.04,0.019,1.701-0.415,1.701-0.415
		c0.119-0.03,0.278-0.04,0.436-0.04c2.375-0.05,4.809,0.376,7.382,0.802c3.503,0.584,7.125,1.217,10.845,0.742
		c6.155-0.742,12.726-3.523,18.347-6.175l0,0c0.059-0.029,2.631-1.464,2.631-1.464c-0.059,0.04,3.206-1.632,3.206-1.632
		c0.199-0.05,3.583,0.089,3.583,0.089c-0.08,0.019,2.355,0.227,2.355,0.227c7.184,0.218,13.478,0.455,21.631-3.325l2.494-1.416
		c2.257-1.483,3.919-3.255,5.403-4.809c1.267-1.346,2.435-2.592,3.82-3.532c0.04-0.01,3.958-1.752,3.958-1.752
		c-0.019,0.01,2.87-1.147,2.87-1.147c-0.059,0.04,2.454-0.99,2.454-0.99l4.888-2.187c-0.158,0.089,2.791-1.732,2.791-1.732
		c3.999-2.642,7.342-5.631,10.272-8.243c0.06-0.069,5.343-4.612,5.343-4.612c0.099-0.089,5.126-3.829,5.126-3.829
		c3.127-2.266,6.057-4.384,8.629-6.946c8.51-8.353,25.372-28.074,29.488-36.663c0.079-0.119,2.87-5.106,2.87-5.106
		c1.405-2.315,2.791-4.631,3.8-7.145c0.673-1.662,3.839-10.232,0.575-15.179c-1.603-2.415-3.8-3.088-5.562-3.662
		c-0.059,0-1.088-0.346-1.088-0.346c-1.603-0.624-3.8-1.534-5.086-2.929l-2.197-3.374c-0.792-1.504-1.663-3.028-2.87-4.334
		c-1.366-1.445-3.127-2.217-4.691-2.91c-0.099-0.059-2.356-1.186-2.356-1.186c-0.138-0.08-0.237-0.139-0.376-0.238l-1.147-0.97
		c0.019,0.04-2.236-1.742-2.296-1.791c-0.376-0.188-0.772-0.406-1.247-0.713c-0.079-0.029-1.325-0.821-1.325-0.821
		c-0.257-0.158-0.475-0.376-0.654-0.614l-1.444-2.077c0.019,0.04-2.178-2.949-2.494-3.395c-1.287-1.375-2.751-2.405-4.157-3.395
		c-1.564-1.088-2.89-2.018-3.642-3.146c-1.325-1.979-2.355-5.166-3.167-7.718c-0.019-0.02-0.356-1.049-0.356-1.049
		c-0.693-2.099-0.792-4.335-0.911-6.709c-0.098-2.277-0.218-4.592-0.87-6.759c-1.247-4.107-3.543-7.284-5.561-10.093
		c-1.781-2.494-3.345-4.622-4.256-7.205c-1.049-2.928,0.199-6.066,0.812-9.074c0.257-1.267,0.891-2.434,1.643-3.829
		c-0.059,0.089,1.643-3.453,1.643-3.453c1.98-4.988,3.187-6.195,7.244-10.203c-0.099,0.089,7.283-5.353,7.283-5.353l3.326-3.077
		c1.444-0.949,1.267-4.829,1.326-6.58c0-0.554,0.238-1.059,0.594-1.445c1.801-1.831,2.375-3.622,2.751-5.185
		c0.316-1.287,2.988-10.787,6.096-12.706c3.127-1.92,7.679-2.425,8.747-2.266c1.623,0.326,2.989,1.058,4.315,1.771
		c3.108,1.662,5.957,2.849,9.401,0.594l0.85-0.633c3.523-2.85,3.048-7.581-0.277-17.12
		C375.416,116.386,369.102,105.718,364.55,99.751z M165.492,172.711c2.038-3.246,3.839-6.115,7.758-8.708
		c11.578-7.569,31.982-12.349,41.857-11.439c1.999,0.188,5.324,1.337,8.887,2.573l0.891,0.336
		c6.867,2.415,8.748,3.484,14.882,10.193c2.296,2.484,4.236,4.869,6.096,7.481c5.878,8.183,12.508,21.157,13.181,29.073
		c0.218,2.395-0.475,5.977-1.088,9.144c0.019,0.019-0.416,2.335-0.416,2.335c0-0.059-0.633,3.82-0.633,3.82
		c-0.395,2.801-0.811,5.442-1.483,7.511c-2.059,6.442-8.53,15.665-16.962,20.83c-4.334,2.681-13.299,6.135-18.821,7.303
		c-4.749,0.979-11.479,0.692-16.169,0.098c0-0.019-3.107-0.376-3.107-0.376c-4.632-0.534-9.005-1.019-12.132-2.712
		c-8.49-4.531-22.76-17.772-26.757-28.973c-0.594-1.663-0.891-3.563-1.168-5.423c0,0.079-0.811-4.166-0.93-4.73
		c-0.119-0.336-1.325-3.443-1.325-3.443c0,0.039-0.812-1.979-0.812-1.979c-0.019-0.109-0.079-0.238-0.099-0.386
		c-0.356-1.633-0.376-3.959-0.376-6.215c0,0.029-0.079-3.731-0.079-3.731c-0.316-7.876,0.832-11.479,5.938-18.287
		C162.563,177.085,165.492,172.711,165.492,172.711z M353.032,255.259c0.04,0,0.059,0,0.079,0.02
		C353.091,255.259,353.072,255.28,353.032,255.259z M172.775,12.819V12.8V12.819z M39.561,112.586c0-0.019,0-0.059,0-0.079
		C39.561,112.527,39.561,112.566,39.561,112.586z"/>
	<path fill="#231815" d="M369.221,95.843c-2.118-2.732-4.77-5.008-7.342-7.224c-2.533-2.157-4.908-4.196-6.828-6.65
		c-0.06-0.04-3.582-4.789-3.582-4.789c-2.336-3.236-4.533-6.274-7.442-8.847c-1.939-1.761-4.136-3.047-6.234-4.284
		c-2.118-1.237-4.117-2.405-5.76-3.968l-3.285-3.939c-1.088-1.464-2.217-2.949-3.701-4.284c-2.732-2.445-5.72-3.691-8.847-5.027
		c-2.098-0.882-4.275-1.791-6.333-3.127c-1.86-1.177-3.522-2.653-5.304-4.186c-2.059-1.821-4.196-3.661-6.65-5.047
		c-5.245-2.968-11.162-3.919-16.406-4.77c-0.02,0-3.523-0.613-3.523-0.613c-0.316-0.06-0.633-0.178-0.891-0.386
		c-7.065-5.295-13.873-6.937-20.443-8.55c-0.02,0.01-1.702-0.405-1.702-0.405c0.158,0.02-5.581-0.87-5.581-0.87
		c-2.415-0.257-4.73-0.515-6.352-1.287c-1.644-0.812-2.89-1.781-4.137-2.731c-1.286-1.009-2.493-1.939-4.077-2.701
		c-11.142-5.215-26.402-5.096-40.809,0.287c-0.02,0.02-2.316,0.851-2.316,0.851c-2.889,1.069-5.858,2.137-8.331,3.424
		c0.079-0.02,0.119-0.06,0.198-0.119c0.139-0.079,0.158-0.278,0.297-0.406c-0.594,0.584-1.504,1.217-2.949,2.207l-1.247,0.91
		l-0.949,0.515c-1.188,0.485-2.691,0.564-4.275,0.633c0.099,0-3.958,0.455-4.413,0.525c-5.185,1.316-10.945,3.711-14.863,5.472
		c-0.039,0.029-8.035,3.523-8.035,3.523c-6.115,2.632-12.429,5.343-19.099,8.945c-0.119,0.04-5.798,2.712-5.798,2.712l-6.472,3.047
		c0.119-0.069-2.89,1.781-2.89,1.781c-3.463,2.276-6.749,4.998-9.915,7.62c-0.019,0.029-3.859,3.156-3.859,3.156l0.218-0.208
		l-1.603,1.316c-4.73,3.77-9.639,7.649-13.597,11.944C79.5,75.22,75.463,81.296,71.563,87.174c-0.019,0-3.246,4.829-3.246,4.829
		c0.02-0.02-7.164,10.964-7.164,10.964c-0.06,0.079-3.741,5.245-3.741,5.245l-4.195,5.839c0.079-0.08,0.059-0.199,0.098-0.297
		c-0.296,0.791-0.91,1.959-1.919,3.958c0-0.02-1.564,3.097-1.564,3.097c-0.079,0.149-1.207,2.02-1.207,2.02
		c-3.405,5.65-6.333,10.518-7.936,16.871c-0.535,1.969-0.614,3.997-0.733,5.967c-0.118,2.137-0.218,4.066-0.733,5.769
		c-0.652,2.058-1.564,3.958-2.553,5.976c-1.188,2.454-2.415,4.988-3.108,7.897c-0.594,2.485-0.752,5.76-0.891,8.619v0.436
		c-0.019,0.148-0.553,4.463-0.553,4.463l-0.575,4.453c-0.119,1.821,0.099,3.78,0.336,5.66c0,0.04,0.357,3.553,0.357,3.553
		c-0.02,0.119,0,0.287-0.04,0.426l-0.317,3.73c-0.257,1.821-0.475,3.414-0.316,5.017c0.138,1.702,0.633,3.365,1.108,4.987
		c0.496,1.663,0.93,3.187,1.069,4.77c0.218,2.236-0.158,4.582-0.534,7.045c-0.376,2.514-0.772,5.047-0.594,7.591
		c0.198,3.325,1.267,7.985,2.573,11.35c1.108,2.87,2.751,5.343,4.354,7.718c0.04,0.04,2.473,3.889,2.473,3.889
		c4.236,7.353,6.551,14.705,9.024,22.492c2.257,7.224,4.632,14.666,8.53,21.691c2.771,4.958,6.314,8.926,9.797,12.786
		c2.632,2.968,5.087,5.709,7.105,8.727c0.079,0.099,3.701,6.373,3.701,6.373c2.118,3.918,4.295,7.916,7.184,10.608
		c1.881,1.741,3.939,2.879,5.72,3.889c0.04,0,1.385,0.792,1.385,0.792c0-0.029-0.04-0.01-0.079-0.029
		c0.692,0.266,1.84,0.781,4.156,1.761l0,0l2.87,1.246c0.02,0,0.02,0,5.819,5.245c4.809,3.532,8.609,5.888,12.606,7.758
		c0.02-0.019,3.484,1.158,3.484,1.158c0,0.01,2.632,0.901,2.632,0.901c0.178,0.059,0.336,0.158,0.494,0.247l2.514,1.741
		c0.019,0.02,3.028,2.128,3.067,2.157c0.02,0,0.891,0.525,0.891,0.525c-0.059-0.029,5.403,2.909,5.403,2.909
		c11.36,5.087,22.226,8.52,34.021,10.707c0.178,0.05,0.336,0.089,0.496,0.159c8.569,4.066,18.86,6.303,30.557,6.63
		c0,0.019-0.317,0.029-0.317,0.029l3.88,0.158c2.453,0.158,4.986,0.307,7.263,0.149c0.573-0.129,1.464-0.347,3.245-0.743
		c-0.06,0,1.622-0.415,1.622-0.415c0.158-0.05,0.297-0.06,0.455-0.06c2.277-0.069,4.671,0.278,7.145,0.664
		c3.384,0.524,6.887,1.039,10.529,0.554c5.976-0.812,12.409-3.582,17.891-6.175l0,0c0.06-0.029,2.573-1.474,2.573-1.474
		c-0.059,0.05,3.127-1.603,3.127-1.603c0.198-0.06,3.463,0.05,3.463,0.05c-0.04-0.01,2.296,0.148,2.296,0.148
		c6.966,0.139,13.061,0.247,21.057-3.483l2.454-1.386c2.197-1.464,3.839-3.176,5.284-4.71c1.267-1.316,2.434-2.523,3.76-3.424
		c0.059-0.029,3.879-1.742,3.879-1.742c-0.02,0.02,2.83-1.138,2.83-1.138c-0.079,0.03,2.374-0.98,2.374-0.97l4.77-2.187
		c-0.177,0.079,2.751-1.702,2.751-1.702c3.919-2.582,7.205-5.501,10.054-8.034c0.079-0.079,5.284-4.493,5.284-4.493
		c0.099-0.108,5.027-3.77,5.027-3.77c3.067-2.216,5.918-4.274,8.49-6.768c8.352-8.135,13.478-14.804,17.614-23.116
		c0.04-0.119,2.849-4.928,2.849-4.928c1.366-2.236,2.771-4.483,3.8-6.887c0.654-1.603,3.86-9.866,0.772-14.537
		c-1.524-2.295-3.642-2.928-5.363-3.433c-0.02-0.02-1.029-0.357-1.029-0.357c-1.543-0.554-3.661-1.405-4.888-2.712l-2.078-3.206
		c-0.771-1.425-1.583-2.88-2.731-4.097c-1.306-1.365-3.009-2.098-4.512-2.731c-0.099-0.04-2.257-1.088-2.257-1.088
		c-0.138-0.079-0.237-0.139-0.376-0.238l-1.088-0.9c0.04,0.029-2.157-1.653-2.236-1.673c-0.336-0.198-0.712-0.395-1.167-0.692
		c-0.06-0.01-1.287-0.733-1.287-0.733c-0.237-0.178-0.436-0.356-0.613-0.594l-1.386-1.959c0.02,0.019-2.058-2.801-2.335-3.207
		c-1.267-1.325-2.652-2.276-4.018-3.206c-1.504-1.029-2.751-1.9-3.484-2.968c-1.267-1.881-2.197-4.908-2.968-7.342
		c0-0.01-0.317-1-0.317-1c-0.613-2.008-0.692-4.126-0.771-6.402c-0.08-2.197-0.139-4.414-0.753-6.462
		c-1.167-3.908-3.325-6.927-5.244-9.589c-1.723-2.365-3.166-4.384-4.018-6.838c-0.99-2.81-2.019-9.311-1.406-12.22
		c0.277-1.198,0.91-2.356,1.643-3.681c-0.06,0.079,1.663-3.326,1.663-3.326c1.998-4.809,2.87-6.373,6.867-10.252
		c-0.079,0.079,1.761-1.989,1.761-1.989c0-0.009,1.405-1.553,1.405-1.553c0.099-0.119,0.119-0.139,0.257-0.218l0.613-0.455
		l2.929-1.603c0.02,0,3.781-2.039,3.781-2.039c1.425-0.939,2.573-1.979,3.522-3.196c2.573-3.216,2.85-6.501,3.107-9.381
		c0-0.089,0.535-3.769,0.535-3.769c0-0.139,1.029-2.771,1.029-2.771c0.693-1.524,1.326-3.038,1.406-4.73
		c0.02-0.494,0.238-0.989,0.594-1.365c1.801-1.781,2.355-3.523,2.751-4.987c0.336-1.258,0.554-2.088,1.623-2.969
		c0.138-0.139,0.177-0.198,0.336-0.268l2.315-0.999l0,0c0-0.02,2.374-1.059,2.968-1.306c0.357-0.278,2.178-1.702,2.197-1.702
		l0.753-0.653c0.059-0.05,0.118-0.099,0.177-0.139c0.297-0.178,0.594-0.297,0.911-0.317c1.405-0.177,5.086-0.079,6.135,0.08
		c1.544,0.277,2.89,0.949,4.157,1.622c3.008,1.553,5.739,2.633,9.103,0.415l0.832-0.613c3.483-2.801,3.641-8.569,0.554-17.654
		C377.217,108.113,373.575,101.493,369.221,95.843z M174.953,168.674c2.018-3.137,3.8-5.898,7.658-8.432
		c11.341-7.441,31.23-12.32,40.81-11.597c1.9,0.158,5.146,1.188,8.549,2.355l0.87,0.278c6.65,2.216,8.451,3.206,14.31,9.539
		c2.156,2.375,4.017,4.612,5.798,7.085c5.581,7.768,11.815,20.088,12.35,27.648c0.177,2.296-0.535,5.739-1.148,8.777
		c-0.02,0.01-0.475,2.246-0.475,2.246c0-0.059-0.653,3.661-0.653,3.661c-0.456,2.692-0.891,5.226-1.564,7.224
		c-2.098,6.215-8.511,15.131-16.763,20.207c-4.256,2.612-13.003,6.076-18.386,7.272c-4.631,1.019-11.142,0.842-15.694,0.327
		c0.019,0-3.008-0.317-3.008-0.317c-4.492-0.415-8.728-0.831-11.736-2.394c-8.154-4.236-21.83-16.684-25.55-27.351
		c-0.574-1.584-0.812-3.424-1.049-5.176c0,0.05-0.712-3.997-0.812-4.542c-0.138-0.317-1.246-3.266-1.246-3.266
		c0,0.02-0.772-1.88-0.772-1.88c-0.019-0.119-0.079-0.238-0.099-0.367c-0.316-1.573-0.297-3.79-0.237-5.947
		c-0.019,0.02-0.039-3.582-0.039-3.582c-0.198-7.54,0.97-11.003,6.036-17.614C172.042,172.908,174.953,168.674,174.953,168.674z
		 M344.185,257.436c0.04,0.02,0.06,0,0.099,0.02C344.245,257.436,344.225,257.456,344.185,257.436z M184.393,15.412v-0.01
		C184.393,15.402,184.393,15.402,184.393,15.412z M53.613,112.962c0-0.029,0-0.059,0-0.079
		C53.613,112.903,53.613,112.932,53.613,112.962z"/>
	<path fill-rule="evenodd" clip-rule="evenodd" fill="#C39969" d="M300.229,46.266c0.475,0.683,0.04,0.455-0.356,0.633
		c-9.203-2.415-18.901-2.523-28.163-4.612c-9.618-2.187-17.001-8.115-25.432-16.871c8.293,2.405,16.862,3.374,24.481,8.995
		c-1.029,0.019-3.146,0.791-3.68,2.038c2.077,1.515,4.452-0.177,6.373-0.346C282.556,35.381,291.917,40.803,300.229,46.266z"/>
	<path fill-rule="evenodd" clip-rule="evenodd" fill="#C39969" d="M253.107,363.863c-9.737,7.174-21.888,6.788-31.745,6.996
		c0.693-1.158,2.454-2.118,3.245-3.295c2.178,1.128,5.542,2.346,7.778-0.484c-1.128-1.237-2.118,0.059-3.503,0
		c-1.9-0.109-3.681-1.267-5.442-0.664c-2.712,0.911-4.394,3.088-6.986,3.463c-2.454,0.347-6.314,0.238-9.58,0.109
		c-3.641-0.109-7.164,0.108-9.321-0.03c-11.618-0.821-24.521-4.116-33.763-11.34c-1.504,1.03,1.109,2.969,1.761,3.85
		c-11.637-3.484-23.155-7.491-34.218-13.775c0.04-1.078,3.047-1.553,1.998-2.849c-1.821-0.604-4.037,0.821-6.016,0.87
		c-6.67-2.979-13.3-6.175-19.534-11.459c9.322-0.366,18.881-0.148,26.896,6.204c4.136,3.276,7.165,7.541,12.132,10.183
		c2.909,1.553,6.927,2.722,10.114,2.988c1.959,0.178,3.661-0.505,5.364-0.059c6.293,1.672,12.369,7.926,18.663,10.133
		c5.501,1.9,11.4,2.384,17.436,1.217c6.036-1.138,12.191-3.038,18.188-2.326c6.234,0.762,11.697,0.564,17.713-0.079
		C241.074,362.774,246.694,362.497,253.107,363.863z"/>
	<path fill-rule="evenodd" clip-rule="evenodd" fill="#C39969" d="M78.926,305.568c-17.554-15.397-17.02-34.852-28.4-53.564
		c7.916,7.234,16.466,13.765,21.691,25.046C76.551,286.371,76.987,297.237,78.926,305.568z"/>
	<path fill-rule="evenodd" clip-rule="evenodd" fill="#C39969" d="M312.856,272.22c-5.918-3.354-12.369-5.7-15.496-12.963
		c-0.752-1.682,0.079-3.977-0.712-5.739c-0.495-1.088-1.9-1.939-2.394-3.038c-1.167-2.622,0.594-5.66,0.04-9.302
		c-0.218-1.494-1.287-2.691-1.306-3.759c-0.079-1.653,1.682-3.058,1.999-5.186c0.177-1.375-0.633-3.077-0.535-4.305
		c0.297-3.167,2.791-5.422,2.732-7.6c-2.454-4.334-5.839-4.087-8.847-5.749c-2.375-7.49-2.256-14.447,0.119-20.948
		c-1.246-5.008,1.821-9.105-0.594-14.329c2.059-4.394,3.8-9.203,6.967-12.33c7.976-2.384,8.253-9.935,12.786-13.438
		c3.206-2.523,6.076-3.077,8.173-5.798c1.9-2.474,2.949-6.393,3.978-9.194c0.652-1.751,0.712-4.641,1.998-6.342
		c2.732-3.592,7.263-4.592,7.481-9.173c3.384-1.495,5.502-3.79,8.887-5.868c1.979-0.574,3.74,0.366,6.095-0.158
		c1.108-0.257,2.533-1.455,4.097-1.93c2.018-0.642,4.018,0.129,5.106-1.078c2.375-2.523-2.87-8.144-5.027-11.736
		c-6.313-10.529-9.579-23.254-14.348-32.28c5.581,2.85,8.59,8.708,12.726,14.013c5.145,6.59,12.488,10.974,17.199,17.268
		c5.561,7.432,8.985,16.001,9.539,23.857c-3.405,2.316-5.819-0.336-8.471-1.732c-3.483,0.317-6.788-0.287-10.212-0.247
		c-3.899,3.998-9.045,4.256-11.776,7.383c-1.287,1.464-1.484,4.195-2.89,6.155c-1.167,1.682-3.265,2.968-3.938,4.552
		c-0.793,1.79-0.04,3.899-0.475,5.739c-0.317,1.277-1.287,2.336-1.722,3.839c-0.891,3.008-0.278,6.511-1.287,8.569
		c-2.058,4.057-5.858,5.384-9.816,8.015c-2.236,1.484-7.026,6.571-8.787,8.906c-1.603,2.039-2.098,5.116-3.463,7.679
		c-1.167,2.217-3.226,4.136-3.8,5.977c-1.109,3.651-0.099,7.263,0.495,11.281c0.278,1.761-0.316,3.721,0.06,5.363
		c1.365,5.561,5.918,8.213,8.451,14.546c1.187,3.028,0.356,6.738,1.108,10.49c0.357,1.751,1.643,3.701,2.296,5.818
		c1.03,3.305,1.385,6.977,4.512,10.924c1.722,2.197,4.829,3.177,6.867,5.146c1.405,1.385,2.336,3.187,3.721,4.503
		c2.276,2.058,4.73,4.145,6.987,5.848c1.939,1.484,4.512,2.197,5.957,3.781c3.582,3.958,5.878,8.945,9.718,10.628
		c2.137,0.891,4.828-0.149,6.174,1.722c2.276,3.127-2.276,9.539-4.274,12.855c-2.474,4.106-4.057,8.935-5.957,12.062
		c-2.494,4.057-6.156,8.035-9.639,11.755c-3.463,3.741-8.015,8.689-12.33,11.222c-4.196,2.494-9.183,1.959-12.448,3.968
		c1.425,2.552,5.146-0.317,5.976,1.464c-7.521,5.442-16.803,13.231-24.758,15.179c-0.317-2.137,0.752-6.62,3.622-9.717
		c3.146-3.444,9.342-5.641,14.289-9.431c2.87-2.226,4.572-5.185,6.908-6.501c2.078-1.188,7.54-1.375,9.855-2.623
		c4.73-2.593,9.877-7.828,12.944-12.033c3.543-4.869,5.68-10.835,6.967-14.645c0.791-2.336,2.315-6.887,0.851-8.688
		c-2.475-3.029-8.689,1.524-11.895-1.04c-8.055,3.414-15.655-2.899-22.621-6.728L312.856,272.22z"/>
	<path fill-rule="evenodd" clip-rule="evenodd" fill="#C39969" d="M49.615,162.142c0.654-1.979-2.454-5.601-3.008-8.074
		c-0.673-3.088,0.614-10.845,2.059-15.645c1.147-3.839,3.68-8.243,5.779-12.32c1.543-2.969,3.424-4.928,5.422-8.223
		c0.871-1.474,1.227-3.236,2.059-4.463c1.682-2.435,3.958-4.335,5.304-6.591c1.346-2.197,1.742-4.711,3.088-7.066
		c2.058-3.523,5.225-6.432,7.659-10.073c2.474-3.741,5.205-6.719,8.095-9.975c4.334-4.869,7.837-9.925,13.14-14.091
		c8.59-6.719,19.514-17.614,29.806-19.277c2.592-0.426,5.976,0.841,8.233-0.396c-0.139-2.236-4.078-1.128-4.474-2.098
		c3.8-4.225,9.698-4.512,14.547-6.095c8.51-2.791,15.694-9.025,24.105-9.728c-8.569,10.162-15.517,17.347-27.253,19.306
		c-3.72,0.613-9.123,0.96-12.507,1.78c-12.627,3.088-22.344,12.113-26.56,22.562c-1.821,4.552-3.621,10.776-7.125,14.903
		c-4.948,5.779-11.38,8.966-14.329,15.22c-2.375,4.967-2.949,10.746-6.432,15.447c-2.949,3.987-7.145,7.154-10.252,10.262
		c-10.291,10.192-13.814,20.424-11.894,34.12c2.315,16.367-5.7,31.259-14.527,45.944c-2.969-5.294-0.673-11.637-0.911-17.208
		c-0.098-1.84-0.692-3.661-0.692-5.72c0.019-2.79,1.742-5.501,1.919-8.213c0.099-1.425-0.633-2.89-0.534-4.315
		c0.396-5.482,2.019-10.885,4.394-15.634C45.578,158.205,47.498,162.974,49.615,162.142z"/>
	<g>
		<path fill="#A47140" d="M84.744,98.989c0,0-8.49,8.708-12.132,14.903c-3.622,6.175-18.385,22.82-19.712,26.273
			c-1.326,3.453-0.871,11.429-2.632,15.516c-0.376,0.911-0.792,1.9-1.227,2.959c-0.238,0.594,1.068,2.9,0.851,3.523
			c-0.218,0.525-1.96-0.654-2.157-0.099c-1.009,2.83-1.96,5.839-2.612,8.708c-1.168,5.264,0.395,6.314,0.177,8.856
			c-0.198,2.543-0.474,5.492,0.475,7.452c0.93,1.94,0.079,3.028-0.673,6.273c-0.752,3.266-0.376,6.977-0.376,6.977
			s6.076-11.597,7.778-15.803c1.662-4.195,2.77-13.725,3.067-17.713c0.297-3.978-0.415-7.125-0.93-10.737
			c-0.494-3.632,1.109-13.665,3.028-16.476c1.92-2.83,7.145-10.746,12.29-15.179c5.166-4.414,7.936-7.481,10.153-12.716
			C82.311,106.47,84.744,98.989,84.744,98.989z"/>
		<path fill="#A47140" d="M67.151,268.499c0,0-1.326,12.35,2.909,17.475c4.215,5.126,6.749,7.739,6.749,7.739
			s-1.643-11.36-4.809-17.247C69.862,272.438,67.151,268.499,67.151,268.499z"/>
		<path fill="#A47140" d="M118.291,335.462c0,0,10.786,4.157,13.715,7.323c2.909,3.137,15.991,11.449,17.554,12.973
			c0.791,0.771,8.332,3.295,14.685,5.353c-1.227-1.257-1.029-2.969-0.356-2.415c5.363,4.533,11.419,5.928,13.755,6.779
			c5.521,1.979,22.66,2.602,24.363,1.761c1.701-0.841,8.925-2.029,10.173-1.425c1.227,0.613,7.54,1.187,11.597,0.484
			c4.038-0.712,13.715-3.048,15.457-2.533c1.761,0.554,9.52,1.632,9.52,1.632l4.353-1.593c0,0-2.691-0.445-6.768-1.128
			c-4.136-0.663-16.368,1.583-21.038,1.267c-4.71-0.287-8.411-0.574-11.281-0.614c-4.156-0.049-15.14,2.435-20.246,3.009
			c-6.769,0.743-16.506-2.82-22.998-7.57c-6.51-4.739-8.352-4.225-9.836-4.373c-1.504-0.129-6.155-0.06-9.004-0.999
			c-2.87-0.93-8.194-3.484-13.715-8.866c-5.522-5.413-7.739-6.393-10.905-7.392C124.109,336.135,118.291,335.462,118.291,335.462z"
			/>
	</g>
	<path fill="#A47140" d="M299.675,348.633l2.356-2.721c0,0,2.018-4.977,7.995-7.778c5.957-2.82,11.459-8.866,12.192-10.756
		c0.712-1.881,5.185-5.473,5.185-5.473s-2.514,0.288-3.879,1.188c-1.366,0.881-4.018,4.879-7.263,6.729
		c-3.226,1.85-12.963,7.976-13.814,9.124C299.596,342.707,299.675,348.633,299.675,348.633z"/>
	<path fill-rule="evenodd" clip-rule="evenodd" fill="#A47140" d="M306.325,166.358c-4.493-1.326-8.945-0.436-8.945-0.436
		c5.561-3.107,6.234-9.302,10.232-12.39c3.206-2.523,6.076-3.077,8.173-5.798c1.9-2.474,2.949-6.393,3.978-9.194
		c0.652-1.751,0.712-4.641,1.998-6.342c2.732-3.592,7.263-4.592,7.481-9.173c3.384-1.495,5.502-3.79,8.887-5.868
		c1.979-0.574,3.74,0.366,6.095-0.158c1.108-0.257,2.533-1.455,4.097-1.93c2.018-0.642,4.018,0.129,5.106-1.078
		c0,0,4.216,0.079,8.966,3.028c4.73,2.949,9.817,7.788,11.123,8.094c-3.405,2.316-5.819-0.336-8.471-1.732
		c-3.483,0.317-6.788-0.287-10.212-0.247c-3.899,3.998-9.045,4.256-11.776,7.383c-1.287,1.464-1.484,4.195-2.89,6.155
		c-1.167,1.682-3.265,2.968-3.938,4.552c-0.793,1.79-0.04,3.899-0.475,5.739c-0.317,1.277-1.287,2.336-1.722,3.839
		c-0.891,3.008-0.278,6.511-1.287,8.569c-2.058,4.057-5.858,5.384-9.816,8.015c-2.236,1.484-7.026,6.571-8.787,8.906
		C314.143,176.293,310.798,167.665,306.325,166.358z"/>
	<path fill-rule="evenodd" clip-rule="evenodd" fill="#C39969" d="M233.692,132.318c0.812-1.603-1.84-2.207-2.592-3.325
		c6.61,0.356,12.191,4.215,17.336,11.003c3.444,4.591,6.136,8.916,9.579,12.231c4.75,4.512,9.896,5.898,13.656,13.023
		c1.701,3.266,2.513,8.154,4.413,12.567c3.305,7.798,7.6,13.874,7.857,20.702c0.139,3.908-0.356,9.718-1.939,12.893
		c-3.088,6.185-8.906,10.48-13.854,17.645c-5.621,8.094-6.175,17.198-12.745,22.324c-6.828,5.343-12.963,1.564-19.316,3.077
		c-3.583,0.841-7.462,3.8-11.875,5.868c-7.164,3.443-14.705,4.453-21.137,2.554c-7.758-2.277-12.507-8.154-19.712-12.311
		c-6.214-3.563-13.141-2.513-18.603-9.182c-5.581-6.819-4.73-13.27-7.204-20.563c-3.523-10.253-14.468-18.327-11.321-27.698
		c0.91-2.801,3.562-4.938,5.304-7.768c1.425-2.316,2.791-5.542,3.246-7.946c0.93-4.869-0.395-12.191,1.425-17.169
		c0.93-2.493,3.721-6.63,6.492-8.925c4.907-4.097,11.36-5.056,16.703-8.688c4.67-3.206,8.094-8.035,11.4-10.232
		c7.639-5.087,14.863-5.878,21.493-5.413C219.759,127.498,226.666,130.576,233.692,132.318z M248.673,156.957
		c-6.194-6.709-8.352-7.926-15.437-10.291c-3.127-1.049-7.521-2.583-10.133-2.791c-10.449-0.791-31.23,4.552-42.748,12.093
		c-6.077,3.977-7.68,8.628-11.301,13.358c-5.442,7.105-6.788,11.222-6.551,19.277c0.12,3.532-0.198,7.342,0.336,10.014
		c0.357,1.919,1.644,3.661,2.138,5.669c0.87,3.434,0.87,7.006,1.979,10.123c3.939,11.281,18.227,24.443,26.995,28.995
		c4.155,2.167,10.013,2.355,15.753,2.988c5.126,0.594,11.816,0.693,16.665-0.376c5.422-1.188,14.704-4.79,19.355-7.65
		c8.887-5.463,15.656-14.853,17.951-21.681c1.069-3.108,1.544-7.303,2.336-11.38c0.712-3.621,1.939-8.49,1.682-11.746
		c-0.574-8.242-7.303-21.344-12.963-29.201C252.869,161.747,250.91,159.392,248.673,156.957z"/>
	<path fill-rule="evenodd" clip-rule="evenodd" fill="#231815" d="M350.973,122.58c0.257,0.297,0.257,0.525,0.08,0.722
		c-2.415,1.93-4.295,1.316-6.254,1.04c0.455,5.214-5.067,5.185-8.827,8.787c-1.049,1.018-0.772,2.849-1.881,4.859
		c-0.633,1.138-1.88,1.811-2.177,2.582c-0.851,2.375,0.495,5.284-0.376,7.6c-1.088,2.851-4.335,6.285-6.769,10.272
		c-2.849,4.641-4.77,8.431-8.925,11.677c-0.851,0.673-2.197,1.147-2.969,1.959c-3.127,3.355-1.584,10.638-9.539,13.646
		c-1.346,0.525-2.87,0.268-4.829-0.307c-0.515,1.999,0.534,4.335-1.919,5.898c-1.129-1.356-0.039-2.692-0.257-4.453
		c-0.317-3.008-2.118-6.432-1.821-9.242c0.455-4.236,5.146-10.935,10.272-14.883c1.226-0.949,2.849-1.622,4.056-2.671
		c1.841-1.603,2.454-4.028,3.959-5.72c2.018-2.256,5.363-3.572,7.184-5.482c3.503-3.721-0.12-10.083,4.986-14.13
		c0.733-0.575,2.078-0.753,2.87-1.524c2.078-2.029,1.564-4.948,3.523-6.947C338.07,119.374,344.621,122.521,350.973,122.58z"/>
	<path fill-rule="evenodd" clip-rule="evenodd" fill="#231815" d="M314.578,267.213c-2.178-1.742-4.157-4.572-6.69-4.849
		c0.376-1.86-1.504-2.771-2.137-4.394c-0.693-1.881,0.04-4.067-0.416-5.918c-0.752-3.087-3.007-5.621-3.8-8.698
		c-1.227-4.759-0.138-11.083-2.256-16.298c2.751,2.236,3.522,5.976,4.097,8.53c3.206-2.919,3.721-6.273,4.097-9.777
		c0.079-0.989-1.702-2.473-0.297-3.196c1.504,3.058,4.236,4.543,5.7,7.452c1.702,3.394,0.554,7.995,2.098,11.379
		c6.69,8.075,11.221,20.484,18.861,22.741c-0.415-3.078-4.314-4.533-4.967-6.393c4.334-1.049,5.403,4.018,8.728,7.382
		c3.384,3.444,8.49,2.83,11.063,9.718c0.396,1.099-0.098,2.612,0.159,3.78c2.058,1.347,4.69-0.177,6.412,2.712
		c-9.797,0.415-19.574,0.861-27.53-7.738c-5.324-4.315-11.717-3.405-17.317-6.353C311.946,266.462,313.094,267.758,314.578,267.213z
		"/>
	<path fill-rule="evenodd" clip-rule="evenodd" fill="#231815" d="M290.75,212.016c-0.554-2.157-1.109-6.491-1.821-9.44
		C292.471,203.625,293.342,209.948,290.75,212.016z"/>
	<path fill-rule="evenodd" clip-rule="evenodd" fill="#231815" d="M160.683,37.925c-4.078,0.247-8.154,6.501-12.232,5.65
		C150.194,40.13,157.476,35.124,160.683,37.925z"/>
	<path fill-rule="evenodd" clip-rule="evenodd" fill="#231815" d="M96.381,78.328c-3.74,3.74-7.401,7.49-9.816,11.498
		C84.408,85.185,90.741,78.407,96.381,78.328z"/>
	<path fill-rule="evenodd" clip-rule="evenodd" fill="#231815" d="M85.496,90.538c0.257,0.357,0.475,0.713,0.712,1.069
		c-0.771,0.87-2.335,2.494-3.325,2.573C81.499,92.597,83.874,90.756,85.496,90.538z"/>
	<path fill-rule="evenodd" clip-rule="evenodd" fill="#231815" d="M75.226,106.599c-1.584,5.808-5.186,11.211-11.004,16.14
		c-2.197-3.405,2.454-5.284,4.671-8.115c1.959-2.434,1.86-6.63,5.146-8.035C74.414,106.707,74.809,106.678,75.226,106.599z"/>
	<path fill-rule="evenodd" clip-rule="evenodd" fill="#231815" d="M49.081,162.499c0.178,0.268,0.356,0.544,0.534,0.791
		c-1.88,2.811-0.692,6.235-2.553,9.055C44.074,169.366,45.301,164.083,49.081,162.499z"/>
	<path fill-rule="evenodd" clip-rule="evenodd" fill="#231815" d="M46.627,172.236c1.128,1.841-0.119,4.275-1.9,4.74
		C43.54,175.145,44.43,172.632,46.627,172.236z"/>
	<path fill-rule="evenodd" clip-rule="evenodd" fill="#231815" d="M358.653,103.185c-2.257-1.208-3.662-3.899-6.036-5.65
		c-3.484-2.573-8.075-4.047-7.026-10.064C348.539,95.081,358.079,95.268,358.653,103.185z"/>
	<path fill-rule="evenodd" clip-rule="evenodd" fill="#231815" d="M362.196,109.776c-1.979-0.95-1.306-3.206-1.821-4.601
		C361.82,105.164,364.729,108.667,362.196,109.776z"/>
	<path fill-rule="evenodd" clip-rule="evenodd" fill="#231815" d="M357.505,120.611c-1.881,1.89-6.412-0.386-6.491-3.85
		C353.566,116.851,355.229,119.186,357.505,120.611z"/>
	<path fill-rule="evenodd" clip-rule="evenodd" fill="#231815" d="M290.314,197.034c1.9,0.752,1.405,4.275-0.059,4.394
		C290.116,200.003,290.413,198.459,290.314,197.034z"/>
	<path fill-rule="evenodd" clip-rule="evenodd" fill="#231815" d="M301.793,258.09c-3.68-5.284-1.267-10.459-5.541-15.1
		c0.653-0.505,1.128-0.149,1.603,0.079C302.367,247.739,302.901,253.795,301.793,258.09z"/>
	<path fill-rule="evenodd" clip-rule="evenodd" fill="#780B7D" d="M333.063,128.221c-1.86,2.256-1.366,5.027-3.008,6.61
		c-1.742,1.723-3.602,1.692-4.928,3.642c-2.059,3.077-0.673,8.569-3.642,12.072c-1.761,2.098-4.987,3.542-7.006,5.799
		c-1.247,1.425-1.663,3.325-2.791,4.552c-3.226,3.443-8.312,5.482-10.945,9.153c-2.137,2.93-4.651,9.867-2.949,11.983
		c1.603,1.96,6.531,0.436,7.797-0.505c3.681-2.681,3.384-7.807,4.512-10.717c8.214-4.443,11.183-12.29,15.398-18.267
		c1.227-1.742,2.889-3.285,3.522-4.651c1.247-2.731,0.238-6.036,0.851-8.669c2.949-1.721,2.236-5.987,4.948-8.312
		c2.394-2.029,7.62-2.77,7.66-6.57C339.791,124.737,335.754,124.955,333.063,128.221z"/>
	<path fill-rule="evenodd" clip-rule="evenodd" fill="#780B7D" d="M328.551,263.809c-5.186-3.819-8.55-12.112-13.399-18.593
		c-4.373-5.789-2.514-10.687-5.304-16.229c-0.911,0.791-0.614,2.108-1.188,3.494c-1.089,2.592-3.721,5.026-5.047,7.579
		c0.633,4.176,3.563,7.521,4.591,11.657c0.674,2.691-0.256,5.511,1.227,7.699c2.157,3.186,6.274,3.503,8.471,7.559
		c10.173,0.792,17.554,14.794,28.597,11.281C346.204,267.965,334.725,268.322,328.551,263.809z"/>
	<path fill-rule="evenodd" clip-rule="evenodd" fill="#A47140" d="M158.585,217.706c-0.594-2.563-6.828-13.576-8.233-16.911
		c-1.109-2.682,1.742-10.113,2.058-13.279c0.336-3.177,5.107-10.114,5.245-13.162c0.139-3.048,4.414-12.448,4.414-12.448
		s1.504,1.425,3.859,0.951c0.436-0.099,1.188-0.06,2.118,0.039c0.376-0.515,0.772-1.03,1.227-1.603
		c1.484-1.86,2.712-4.117,3.622-6.254c0.832-1.979,0.673-4.464,2.454-6.254c2.157,1.939,0.535,5.046,0.139,7.243
		c2.77-4.027,9.183-6.551,13.655-8.609c2.454-1.148,4.533-2.592,6.551-3.562c7.184-3.405,17.892-3.839,24.799-3.999
		c7.521-0.158,12.666,2.919,19.751,4.75c-3.74-9.896-13.616-4.374-17.752-12.251c2.513,0.891,4.571,2.187,7.777,2.988
		c2.653,0.663,6.532,0.97,8.511,2.909c2.295,2.306,3.404,6.551,5.858,8.887c7.62,7.283,13.933,12.785,19.573,23.809
		c1.405,2.791,2.574,6.115,3.702,9.143c3.009,8.056,4.354,13.547,3.225,20.702c1.9-1.603,4.671-3.978,6.908-4.186
		c-2.078,3.602-6.017,5.571-7.481,9.183c-1.445,3.572-0.99,7.669-2.276,11.192c-3.226,8.728-8.372,15.021-17.554,23.175
		c1.267,0.198,2.909-1.395,3.819,0.554c-4.512,3.462-10.528,2.652-15.14,4.591c-1.208,0.515-2.394,1.425-3.563,2.058
		c0.475,0.584,0.99,1.088,1.524,1.385c2.593,1.495,8.966-1.088,11.954,0.178c2.276,0.97,3.226,1.583,4.71,3.395
		c0.456-0.268,0.911-0.604,1.366-0.94c6.57-5.126,7.125-14.23,12.745-22.324c4.948-7.165,10.766-11.459,13.854-17.645
		c1.584-3.176,2.078-8.985,1.939-12.893c-0.257-6.828-4.552-12.903-7.857-20.702c-1.9-4.413-2.712-9.301-4.413-12.567
		c-3.76-7.125-8.906-8.511-13.656-13.023c-3.443-3.314-6.135-7.639-9.579-12.231c-5.146-6.788-10.727-10.648-17.336-11.003
		c0.752,1.118,3.404,1.722,2.592,3.325c-7.025-1.742-13.933-4.819-21.394-5.334c-6.63-0.465-13.854,0.326-21.493,5.413
		c-3.305,2.197-6.729,7.026-11.4,10.232c-5.343,3.632-11.796,4.591-16.703,8.688c-2.771,2.295-5.562,6.432-6.492,8.925
		c-1.82,4.978-0.494,12.301-1.425,17.169c-0.455,2.405-1.821,5.63-3.246,7.946c-1.742,2.83-4.394,4.967-5.304,7.768
		c-3.147,9.371,7.797,17.445,11.321,27.698c1.504,4.433,1.919,8.321,3.067,12.507C161.138,226.453,159.159,220.071,158.585,217.706z
		"/>
	<path fill-rule="evenodd" clip-rule="evenodd" fill="#231815" d="M277.509,193.492c0.297-2.355-0.435-4.918,0.317-7.164
		C274.719,186.328,274.56,191.453,277.509,193.492z"/>
	<path fill-rule="evenodd" clip-rule="evenodd" fill="#231815" d="M189.895,139.175c-0.871,2.603-4.691,2.365-6.036,4.364
		c2.038,2.157,5.68-0.287,7.283-2.473c3.86,0.91,13.596-2.564,13.28-7.996C200.067,136.711,194.802,138.631,189.895,139.175z"/>
	<path fill-rule="evenodd" clip-rule="evenodd" fill="#231815" d="M152.905,200.319c1.524-3.829,5.601-6.887,6.234-11.063
		c0.574-4.047-0.93-8.134,0.317-11.815c0.574-1.771,2.276-4.018,3.344-6.076c2.02-3.86,3.384-6.136,6.472-10.073
		c1.484-1.86,2.712-4.117,3.622-6.254c0.832-1.979,0.673-4.464,2.454-6.254c2.157,1.939,0.535,5.046,0.139,7.243
		c2.77-4.027,9.183-6.551,13.655-8.609c2.454-1.148,4.533-2.592,6.551-3.562c7.184-3.405,17.892-3.839,24.799-3.999
		c7.521-0.158,12.666,2.919,19.751,4.75c-3.74-9.896-13.616-4.374-17.752-12.251c2.513,0.891,4.571,2.187,7.777,2.988
		c2.653,0.663,6.532,0.97,8.511,2.909c2.295,2.306,3.404,6.551,5.858,8.887c7.62,7.283,13.933,12.785,19.573,23.809
		c1.405,2.791,2.574,6.115,3.702,9.143c3.009,8.056,4.354,13.547,3.225,20.702c1.9-1.603,4.671-3.978,6.908-4.186
		c-2.078,3.602-6.017,5.571-7.481,9.183c-1.445,3.572-0.99,7.669-2.276,11.192c-3.226,8.728-8.372,15.021-17.554,23.175
		c1.267,0.198,2.909-1.395,3.819,0.554c-4.512,3.462-10.528,2.652-15.14,4.591c-1.425,0.594-2.791,1.781-4.215,2.395
		c-6.156,2.652-14.348,3.295-21.117,3.127c-6.848-0.188-14.427-0.515-19.791-2.415c-4.216-1.543-8.174-5.492-12.39-8.846
		c-4.315-3.414-8.669-6.848-11.776-10.806c-8.134-10.351-9.579-21.196-11.4-31.904c-0.06-0.257,0.099-0.445-0.079-0.732
		C157.932,197.628,155.181,201.349,152.905,200.319z M248.06,157.63c-6.076-6.591-8.173-7.777-15.16-10.094
		c-3.067-1.029-7.363-2.533-9.915-2.731c-10.291-0.791-30.716,4.453-42.036,11.875c-5.957,3.908-7.521,8.451-11.083,13.102
		c-5.343,6.996-6.67,11.033-6.452,18.959c0.119,3.474-0.198,7.205,0.316,9.836c0.376,1.871,1.663,3.602,2.118,5.562
		c0.851,3.384,0.871,6.887,1.92,9.934c3.879,11.113,17.93,24.026,26.539,28.499c4.097,2.138,9.856,2.336,15.496,2.95
		c5.047,0.563,11.618,0.673,16.367-0.357c5.324-1.188,14.448-4.73,19.02-7.55c8.708-5.374,15.358-14.596,17.654-21.296
		c1.029-3.057,1.484-7.193,2.295-11.172c0.674-3.563,1.881-8.352,1.644-11.518c-0.594-8.135-7.205-21.009-12.746-28.727
		C252.197,162.341,250.276,160.025,248.06,157.63z"/>
	<path fill-rule="evenodd" clip-rule="evenodd" fill="#231815" d="M205.45,257.674c4.196-1.208,8.035-0.575,11.974-0.594
		C214.474,253.874,207.093,252.666,205.45,257.674z"/>
	<path fill-rule="evenodd" clip-rule="evenodd" fill="#231815" d="M196.029,255.754c1.505,1.445,3.463,0.614,5.225,0.812
		C201.571,254.053,197.375,253.349,196.029,255.754z"/>
	<path fill-rule="evenodd" clip-rule="evenodd" fill="#231815" d="M154.053,206.138c1.84,2.317,3.641,5.423,4.512,8.61
		C161.593,213.006,157.259,204.832,154.053,206.138z"/>
	<path fill-rule="evenodd" clip-rule="evenodd" fill="#E75297" d="M277.806,172.79c2.099,5.205,5.78,11.914,8.056,16.348
		c1.701-3.414-1.643-7.303-0.554-10.826c0.415-1.404,1.385-3.007,2.652-5.086c0,0,2.83-6.511,5.304-8.233
		c2.474-1.702,4.829-2.899,6.076-4.077c2.118-2.02,2.454-5.799,4.691-8.115c2.276-2.375,7.342-4.157,9.242-6.501
		c3.424-4.186,3.365-12.676,6.333-16.179c1.148-1.316,3.384-2.039,4.671-3.453c1.86-2.009,1.801-4.74,3.345-6.086
		c0.87-0.733,2.394-1.109,3.68-2.039c1.603-1.128,2.771-2.712,3.959-3.384c4.691-2.573,9.677,0.257,14.625-4.215
		c-1.346-4.829-4.77-7.511-7.025-11.221c-6.947-11.321-7.501-23.997-15.952-34.714c-8.965-11.4-23.234-14.585-35.089-16.269
		c-11.638-1.672-25.729-1.86-34.595-8.49c-13.181-9.836-22.265-22.383-37.128-23.452c-11.419-0.812-28.103,1.979-40.869,10.727
		c-8.728,5.997-13.992,15.258-23.987,20.464c-11.162,5.839-20.246,2.494-31.091,8.55c-17.02,9.46-13.656,20.246-22.562,31.487
		c-3.384,4.315-11.162,8.669-14.17,13.616c-2.058,3.345-2.514,7.521-4.078,10.806c-4.849,10.114-14.645,15.527-20.464,24.699
		c-2.791,4.443-3.958,8.946-4.612,13.498c-0.692,4.789,0.415,8.807,0.733,14.585c0.534,9.5-2.315,19.554-6.393,27.807
		c-4.433,9.004-11.934,17.02-13.082,26.421c-0.91,7.204,1.881,17.604,8.471,24.581c6.452,6.867,14.15,11.894,20.186,19.523
		c7.105,8.877,11.321,17.724,12.35,26.273c0.93,8.075,0.415,19.326,5.304,27.401c10.212,16.842,22.542,12.508,36.297,15.14
		c5.58,1.059,10.687,3.415,15.08,7.047c5.087,4.195,9.263,9.242,14.547,10.904c4.71,1.455,9.124-0.524,13.478,1.129
		c9.519,3.592,16.763,11.825,26.718,11.755c5.858-0.029,11.934-2.513,17.832-2.88c5.937-0.346,11.913,0.921,17.356,0.554
		c6.333-0.426,12.113-1.801,17.813-1.711c13.715,0.197,30.735,10.806,46.311-5.423c4.512-4.71,4.967-10.41,8.034-15.347
		c3.127-5.047,9.678-7.155,15.635-11.459c2.554-1.871,4.493-4.967,7.184-6.699c3.819-2.405,8.411-1.712,12.191-3.79
		c12.924-7.135,14.923-19.238,18.941-29.865c-3.068,1.781-6.413,0-9.421,0.396c-1.109,0.118-2.099,0.85-3.206,0.96
		c-4.078,0.405-7.798-1.632-11.439-3.276c-3.563-1.622-7.877-3.295-10.529-6.59l-9.737-4.79
		c-4.987-3.127-10.589-5.858-13.557-11.163c-1.346-2.434-0.415-5.046-1.484-7.521c-0.633-1.464-2.138-2.533-2.85-4.324
		c-1.009-2.543,0.574-5.056,0.317-8.312c-0.158-2.029-1.306-3.889-1.227-5.394c0.079-1.385,1.504-2.87,1.999-5.175
		c0.395-1.89-0.377-4.146-0.06-5.374c0.633-2.473,2.553-3.76,1.821-5.442c-1.584-3.601-7.818-2.256-9.024-7.204
		c-3.939,6.373-9.025,10.687-13.775,17.218c-5.087,7.016-6.076,15.962-11.914,21.79c-8.035,8.015-14.506,3.018-23.571,5.868
		c-5.086,1.583-8.727,4.74-12.725,6.481c-9.956,4.315-20.266,2.701-28.104-1.573c-4.849-2.643-8.47-7.174-13.557-9.985
		c-4.413-2.454-9.183-2.216-13.497-4.631c-13.794-7.778-9.183-22.216-17.832-34.645l-4.433-6.738
		c-2.691-4.79-4.017-10.322-2.256-15.14c1.622-4.453,6.433-8.669,7.936-13.735c2.216-7.372-0.04-13.953,2.791-20.395
		c1.267-2.88,3.345-6.333,6.215-8.748c5.324-4.483,9.915-4.462,15.318-7.787c4.433-2.732,7.105-6.977,10.905-9.896
		c3.344-2.573,7.421-5.363,11.656-6.927c8.729-3.206,17.852,0.336,26.302,1.207c5.404,0.554,11.638-0.435,17.357,2.85
		c5.186,2.988,9.203,9.639,14.606,16.269c7.047,8.649,14.329,10.984,18.98,19.969L277.806,172.79z"/>
	<path fill-rule="evenodd" clip-rule="evenodd" fill="#E74589" d="M62.737,137.187c-2.949,4.314-3.977,8.925-4.611,13.497
		c-0.693,4.789,0.395,8.807,0.732,14.585c0.535,9.491-2.335,19.554-6.392,27.807c-4.433,8.995-11.935,17.02-13.102,26.421
		c-0.891,7.204,1.9,17.604,8.47,24.581c6.492,6.867,14.151,11.884,20.226,19.494c7.085,8.906,11.301,17.733,12.311,26.302
		c0.949,8.075,0.435,19.317,5.343,27.411c10.173,16.832,22.523,12.508,36.257,15.12c5.621,1.059,10.708,3.414,15.081,7.056
		c5.087,4.186,9.263,9.252,14.566,10.895c4.711,1.474,9.124-0.505,13.498,1.138c9.5,3.582,16.743,11.815,26.698,11.765
		c5.839-0.05,11.914-2.513,17.832-2.88c5.918-0.366,11.894,0.901,17.357,0.525c6.313-0.415,12.131-1.771,17.812-1.692
		c13.735,0.198,30.755,10.776,46.291-5.432c4.513-4.691,4.988-10.401,8.056-15.359c3.127-5.036,9.677-7.124,15.615-11.479
		c2.573-1.84,4.512-4.957,7.204-6.67c3.8-2.405,8.411-1.692,12.191-3.78c11.717-6.472,15.417-19.415,18.822-29.261l-4.632,0.762
		c0,0-7.56,19.039-12.844,19.157c-5.284,0.139-20.465,8.342-22.602,12.22c-2.137,3.88-13.577,8.956-16.703,13.716
		c-3.147,4.759-7.699,14.467-12.627,16.178c-4.929,1.663-20.108,7.867-26.659,5.047c-6.57-2.83-24.006-1.405-30.162-1.593
		c-6.174-0.199-27.588,4.997-33.545,2.414c-7.204-3.117-18.881-6.392-23.195-9.984c-4.492-3.771-9.836-1.346-14.803-2.77
		c-4.967-1.426-9.282-1.524-17.851-10.401c-8.55-8.896-34.12-15.091-40.156-21.186c-6.057-6.096-6.947-34.635-13.241-44.144
		c-6.273-9.51-24.857-27.48-28.954-34.386c-4.116-6.918,2.771-24.66,4.294-34.199c1.564-9.53,8.729-13.596,9.065-18.525
		c0.336-4.907-2.018-19.702-2.909-22.027c-0.851-2.345,3.898-16.882,7.579-21.79c3.701-4.908,13.062-13.775,13.438-15.595
		c0.218-1.089,11.3-16.486,16.882-27.371C107.029,85.611,106,81.237,106,81.237s-4.512,7.857-7.422,10.133
		c-3.641,2.83-9.262,5.046-12.824,13.952c-3.088,7.739-4.195,10.074-4.67,10.984C79.777,118.74,65.23,133.584,62.737,137.187z"/>
	<path fill="#EA6DA4" d="M123.298,59.308c-4.512,1.326-10.529,6.729-10.529,6.729c12.153-16.684,31.547-12.35,42.472-18.05
		c9.995-5.205,15.259-14.467,23.987-20.464c12.766-8.748,29.45-11.538,40.869-10.727c14.863,1.069,24.304,13.408,37.504,23.235
		c8.866,6.639,22.581,7.035,34.219,8.707c11.855,1.683,26.282,4.107,35.287,15.517c8.431,10.707,8.807,24.145,15.754,35.466
		c2.256,3.711,5.68,6.392,7.025,11.221c-3.364,3.028-6.768,2.691-10.073,2.988c0,0-5.641-6.501-9.045-11.657
		c-3.404-5.146-22.66-41.382-28.974-40.433c-6.333,0.93-30.913-1.326-37.524-2.969c-6.649-1.632-29.073-25.154-41.66-27.449
		c-12.627-2.316-24.799-3.959-38.296,4.947c-13.517,8.906-25.768,19.761-31.863,19.613
		C148.215,55.894,133.569,56.339,123.298,59.308z"/>
	<path fill-rule="evenodd" clip-rule="evenodd" fill="#EA6DA4" d="M258.569,253.181c0,0-4.236,5.581-7.243,8.253
		c-3.008,2.671-9.856,1.068-16.209,3.879c-6.333,2.81-10.292,7.125-17.18,11.676c-6.886,4.543-25.549-7.698-33.427-12.399
		c-7.876-4.701-27.49-10.796-31.645-18.653c-4.136-7.838-2.811-13.893-9.995-27.905c-7.203-14.012-9.341-15.556-8.846-20.999
		c0.494-5.463,9.064-15.1,10.648-17.851c1.583-2.751,2.949-8.727,2.83-13.478c-0.159-7.164,12.627-16.555,12.627-16.555
		c-2.87,2.415-4.948,5.868-6.215,8.748c-2.83,6.442-0.575,13.023-2.791,20.395c-1.504,5.066-6.314,9.282-7.936,13.735
		c-1.761,4.818-0.436,10.35,2.256,15.14l4.433,6.738c8.65,12.429,4.038,26.867,17.832,34.645c4.315,2.415,9.084,2.176,13.497,4.631
		c5.087,2.811,8.708,7.342,13.557,9.985c7.838,4.274,18.148,5.887,28.104,1.573c3.998-1.741,7.639-4.898,12.725-6.481
		c5.087-1.593,8.194-0.712,13.557-1.078C254.493,256.842,258.569,253.181,258.569,253.181z"/>
	<path fill="#EA6DA4" d="M338.288,114.664c-2.672-6.204-7.402-11.717-8.708-13.913c-2.553-4.354-28.123-36.139-35.941-37.94
		c-7.777-1.801-24.303-4.315-31.586-6.016c-7.284-1.683-30.558-27.352-39.84-28.322c-9.302-0.949-29.667,0.703-34.377,4.236
		c-4.71,3.582-19.633,16.803-19.633,16.803l11.598-2.039c0,0,11.043-1.444,18.94,0.951c8.767,2.672,15.16,15.278,17.357,17.06
		c2.217,1.801,4.533,3.513,5.066,6.115c0.534,2.612-1.484,4.215,2.118,6.57c3.622,2.346,8.53,0.95,14.111,1.405
		c5.601,0.436,22.304,5.047,24.936,5.502c2.672,0.465,5.72-4.047,9.064-2.099c3.326,1.92,3.879,2.356,8.708,9.223
		c5.087,7.224,15.655,14.645,20.286,22.66c4.631,8.006,11.617,20.88,13.537,20.009c1.9-0.85,4.473-9.747,4.215-13.22
		c-0.257-3.484-2.197-6.413-2.731-8.669c-0.515-2.267,1.425-8.471,7.995-5.264c3.681,1.82,6.888,4.818,10.608,8.114L338.288,114.664
		z"/>
	<path fill="#F2A8C8" d="M344.66,113.239c-3.206-2.761-8.708-8.253-10.826-12.904c-4.017-8.906-1.801-27.746-14.388-36.415
		c-10.37-7.155-11.043-7.739-23.749-8.619c-12.706-0.901-21.355,0.069-29.292-2.919c-7.936-3.008-12.507-7.718-16.347-12.587
		c-3.839-4.888-8.669-10.687-15.536-14.824c-6.829-4.136-20.899-6.689-30.617-3.918c-6.057,1.742-8.015,1.673-15.714,7.758
		c-7.679,6.106-15.893,14.804-23.195,18.999c-7.303,4.196-19.137,6.898-26.163,6.808c-7.006-0.108-16.011,4.75-16.011,4.75
		s7.6-1.505,9.242-1.257c7.026,1.059,21.296,2.85,27.648-0.673c7.838-4.344,24.066-14.368,28.48-17.347
		c10.746-7.303,22.899-9.955,35.762-5.759c16.209,5.304,24.976,17.416,30.973,21.512c5.957,4.078,20.247,6.393,28.578,7.5
		c8.332,1.089,18.287,6.63,24.779,14.29c6.491,7.669,13.458,11.993,18.801,19.791c4.295,6.254,8.194,12.568,11.202,17.238
		L344.66,113.239z"/>
	<path fill="#CA0080" d="M95.095,104.412c-0.455,1.346-1.761-2.296-4.057,0.297c-2.296,2.573-5.561,11.934-7.679,15.2
		c-2.118,3.265-21.948,18.435-21.612,29.429c0.297,10.974,5.858,18.92,3.819,25.985c-1.504,5.166-13.973,24.215-18.128,31.943
		c-6.888,12.903-3.781,28.618,7.976,35.524c11.776,6.887,21.454,16.783,25.214,23.947c5.343,10.173,3.344,22.205,3.383,36.327
		c0,7.471,12.924,22.057,28.46,22.987c15.556,0.93,22.325,5.166,27.589,11.549c5.284,6.373,12.409,10.133,15.12,11.033
		c1.167,0.396,6.016-4.037,8.728-1.553c2.039,1.85,4.136,2.108,4.136,2.108s7.342,4.987,17.297,8.342
		c12.271,4.166,24.898-1.505,30.123-0.415c5.245,1.068,10.945,1.543,17.099,0.395c6.175-1.138,14.072-2.849,19.93-1.622
		c5.858,1.187,19.375,7.629,28.717,1.979c9.342-5.621,13.596-14.211,14.151-16.981c0.574-2.77,3.186-8.164,5.798-9.886
		c2.612-1.722,13.617-5.284,16.526-7.738c2.909-2.454,2.256-5.383,5.343-7.144c3.088-1.781,16.783-4.503,19.158-8.986
		c1.761-3.354,3.325-6.728,9.4-19.593l-7.164-0.939c-6.393,9.945-9.322,13.844-13.814,17.565c-6.393,5.264-11.4,7.777-14.487,8.767
		c-3.088,0.95-3.681,0.901-6.175,2.801c-3.246,2.503-3.225,2.444-12.231,8.421c0,0-5.997,2.059-7.342,4.018
		c-1.385,1.969-4.117,3.771-7.105,9.203c-2.988,5.453-1.88,6.125-4.73,5.087c-4.315-1.603-1.742,1.711-3.424,3.809
		c-3.76,4.75-6.076,7.273-18.464,3.484c-9.856-2.969-13.459-4.919-21.355-4.78c-7.916,0.158-20.068,5.274-20.068,5.274
		s2.414-3.77,1.682-4.878c-0.376-0.554-3.82-2.197-3.82-2.197l-2.276-1.425c0,0-21.196-3.929-25.352-1.742
		c-1.009,0.534-3.542,0.554-8.729-0.05c-5.165-0.554-6.57-3.721-10.628-2.929c-5.363,1.03-11.796,1.484-16.466-1.553
		c-4.67-3.057-10.193-12.092-14.666-14.467c-4.512-2.355-6.392-2.336-6.392-2.336s3.424-2.87,1.109-4.829
		c-2.356-1.909-22.186-9.5-24.265-9.618c-2.098-0.129-1.722,4.236-2.355,4.176c-0.653-0.059-2.909-3.977-4.373-6.194
		c-1.465-2.226-1.762-6.927-1.762-6.927s4.651-0.04,4.968-3.978c0.316-3.958-8.669-19.474-11.182-26.084
		c-2.039-5.442-5.265-10.727-8.986-14.348c-4.531-4.452-11.142-15.437-11.142-15.437s2.197-2.059,2.732-5.384
		c0.514-3.345,1.78-10.687,2.236-12.884c0.455-2.216-9.876,6.373-11.776,2.454c-1.9-3.918-2.514-9.658-1.405-14.606
		c1.068-4.948,4.394-11.321,4.888-13.695c0.475-2.375,2.731-0.643,5.304,1.207c2.573,1.84,8.056,5.166,5.305-0.633
		c-2.751-5.818-4.632-14.269-5.641-20.544c-0.989-6.293-4.294-15.04,3.246-17.04c7.56-1.979,9.045,0.04,9.401-2.256
		c0.415-2.306-0.415-2.395-1.484-3.602c-1.069-1.208-15.14-3.108-13.735-4.711c1.406-1.593,2.533-3.167,4.473-6.63
		c1.96-3.463,6.769-10.231,10.093-12.418c3.326-2.188,4.453-4.701,6.195-5.988c2.691-1.979,7.144-1.801,8.549-3.819
		c2.078-3.008,1.86-3.424,0.791-5.047C98.698,108.222,95.492,103.046,95.095,104.412z"/>
	<path fill="#F2A8C8" d="M151.064,157.789c0,0-4.947,4.097-4.828,6.491c0.059,1.405-0.712,6.67-2.633,10.845
		c-2.672,5.779-6.887,12.112-8.59,14.764c-2.473,3.8-6.55,13.577-4.749,22.147c1.821,8.559,8.569,5.304,13.557,11.647
		c2.473,3.156-0.574,13.904,1.484,19.395c2.058,5.492,11.637,16.852,19.058,20.989c7.442,4.136,19.099,5.957,23.017,8.609
		c3.879,2.672,9.421,4.632,13.082,6.729c3.642,2.118,8.787,0.119,9.441,0.712c0.653,0.575,8.609,0.376,11.321-0.712
		c2.731-1.049,7.006-3.602,9.558-5.561c2.533-1.979,7.363-6.611,10.371-6.987c3.008-0.376,7.738-1.464,11.162-4.018
		c3.444-2.573,6.808-10.034,6.808-10.034s-6.412,7.115-11.459,7.432c-5.086,0.287-12.231,0.663-15.694,2.939
		c-3.483,2.296-11.558,11.242-19.316,10.787c-7.68-0.455-18.168-4.225-22.741-9.678c-4.572-5.422-8.451-7.679-14.151-8.638
		c-15.754-2.691-21.413-6.937-23.749-18.258c-1.821-8.906-0.575-14.695-4.512-18.059c-3.959-3.374-10.391-9.865-11.499-15.189
		c-0.752-3.542-2.791-10.509,4.196-17.436c6.986-6.927,7.54-7.432,7.777-10.945c0.257-3.523,0.475-9.856,0.633-11.123
		C148.788,163.369,151.064,157.789,151.064,157.789z"/>
	<path fill-rule="evenodd" clip-rule="evenodd" fill="#E74589" d="M271.156,159.164c-4.334-4.839-9.737-7.788-15.041-14.259
		c-5.383-6.63-9.4-13.28-14.585-16.288c-5.7-3.266-11.935-2.296-17.357-2.83c-8.451-0.891-17.575-4.414-26.323-1.218
		c-4.235,1.554-8.312,4.354-11.637,6.927c-3.8,2.929-6.452,7.174-10.905,9.886c-5.403,3.345-9.994,3.305-15.338,7.797
		c-2.236,1.9-3.958,4.612-5.204,7.007c0,0,2.791-11.519,5.877-14.666c3.068-3.147,16.981-7.184,18.802-10.845
		c1.86-3.681,17.297-13.874,21.078-15.239c3.8-1.405,28.855,1.998,33.308,1.959c4.473-0.029,27.648,8.312,30.478,15.289
		c2.811,6.956,10.708,16.892,12.35,18.713c1.643,1.821,4.373,8.322,4.373,8.322l-1.227,3.929l-4.71,0.653L271.156,159.164z"/>
	<path fill="#CA0080" d="M276.005,164.795c1.801-3.266-0.415-7.056-1.246-8.322c-1.426-2.167-4.929-4.76-12.014-9.252
		c-7.085-4.493-7.184-8.946-9.104-13.063c-1.939-4.097-5.463-8.134-9.381-10.588c-3.939-2.474-11.3-4.116-16.605-3.127
		c-5.304,0.97-9.618-1.227-15.714-2.473c-6.095-1.247-14.645,0.386-18.84,2.83c-4.236,2.454-10.292,9.628-12.608,11.29
		c-2.355,1.663-13.676,5.69-17.871,9.252c-3.108,2.662-5.602,8.767-7.184,11.736c-0.495,0.99-1.881,1.781-1.881,1.781
		s3.127-10.737,5.066-13.497c0.654-0.95,16.565-12.083,18.011-13.033c1.425-0.939,2.256-3.314,3.483-4.265
		c1.227-0.91,2.554-2.711,2.099-3.424c-0.475-0.732,0.158-2.166-8.075-6.481c-8.214-4.315-6.69-7.471-5.602-9.688
		c1.069-2.187,23.968,5.027,27.174,5.898c3.186,0.851,9.421,0.198,12.805-0.208c3.383-0.406,14.427-5.532,22.304-3.157
		c7.857,2.365,10.193,3.444,14.132,6.798c3.938,3.365,3.879,3.177,10.291,6.977c6.392,3.79,12.409,10.45,13.834,11.558
		c1.405,1.109,18.227,4.948,19.157,6.036c0.97,1.109,1.98,2.494,0.416,4.097c-1.564,1.623-8.233,3.038-6.868,5.66
		c1.405,2.653,4.097,4.632,7.105,8.154c3.246,3.76,6.175,5.017,7.521,6.353c0,0-3.899,5.086-8.015,2.928
		c-4.117-2.166-7.917-2.374-9.163-2.177C278.044,163.568,276.005,164.795,276.005,164.795z"/>
	<path fill="#CA0080" d="M205.055,41.318c0,0-1.742,2.039,0.494,5.977c2.216,3.888,4.492,3.661,7.145,5.937
		c2.652,2.257,5.739,6.273,9.301,7.145c3.542,0.851,7.521-0.05,5.878-3.206C226.251,54.005,208.735,36.816,205.055,41.318z"/>
	<path fill="#CA0080" d="M123.535,122.837c0,0-1.147,0.535-1.425,2.197c-0.257,1.683,1.881,11.024,1.702,12.29
		c-0.199,1.267-1.445,2.672-0.139,4.809c1.267,2.138,5.957,3.147,8.708,2.612c2.712-0.553,8.252-0.514,12.745-3.462
		c4.453-2.95,2.058-4.483,1.246-5.324c-0.791-0.871-9.5,1.564-12.409-0.416C131.055,133.564,126.227,120.146,123.535,122.837z"/>
	<path fill="#CA0080" d="M108.513,182.24c0.494,4.167,8.609,6.453,13.775,5.581c5.146-0.881,14.903-5.156,17-7.56
		c2.078-2.405,1.96-3.472,0.772-4.166c-1.148-0.733-25.115,1.663-21.869,1.366C121.418,177.164,107.781,176.075,108.513,182.24z"/>
	<path fill="#CA0080" d="M92.423,226.918c-1.049,4.888,2.138,6.749,5.225,8.926c3.068,2.197,10.549,8.451,12.707,9.124
		c2.156,0.683,5.007-0.415,6.273-2.603c1.267-2.166-4.037-7.629-6.393-9.509C107.92,230.956,93.671,221.11,92.423,226.918z"/>
	<path fill="#CA0080" d="M117.874,264.759c0.238,2.315,3.405,6.69,9.362,6.877c5.976,0.188,11.537,2.484,15.496,1.03
		c3.958-1.474,3.977-4.047,3.503-5.809C145.78,265.116,116.786,254.468,117.874,264.759z"/>
	<path fill="#CA0080" d="M152.964,262.78c-1.741,2.355-1.78,9.994,5.779,15.892c7.541,5.878,10.846-0.752,8.729-3.938
		C165.373,271.547,154.29,260.999,152.964,262.78z"/>
	<path fill="#CA0080" d="M136.954,235.31c-4.889-2.8-3.305-10.865,0.019-16.298c3.305-5.412,10.945-5.769,11.914-4.305
		c0.97,1.455,3.206,2.395,0.119,6.393c-3.088,4.018-2.988,9.896-4.967,11.934C142.06,235.083,138.972,236.478,136.954,235.31z"/>
	<path fill="#CA0080" d="M208.696,283.798c-1.78,2.573-1.346,8.767,4.987,9.48c6.373,0.752,10.806-0.871,15.2,1.267
		c4.374,2.117,11.677-5.918,3.602-9.243C226.587,282.868,210.378,281.344,208.696,283.798z"/>
	<path fill="#CA0080" d="M242.796,330.485c1.167,3.988,3.246,5.799,8.41,5.305c5.186-0.475,4.354-1.515,7.719-1.613
		c3.364-0.109,10.647-0.505,13.221-1.979c2.573-1.474,4.452-9.767-2.712-11.133C262.29,319.689,240.619,322.935,242.796,330.485z"/>
	<path fill="#CA0080" d="M305.395,282.512c2.573,3.443,5.799,3.383,8.945,2.098c3.167-1.287,9.48-2.652,6.491-4.493
		c-3.977-2.463-1.504-7.065-4.235-7.224C313.846,272.735,300.289,275.644,305.395,282.512z"/>
	<path fill="#CA0080" d="M146.157,320.115c-0.02,3.998,2.731,5.957,5.264,6.175c2.513,0.217,5.343,0.138,5.858,0.257
		c0.554,0.119,0.119-0.199,0.554,0.119c0.436,0.306,2.473,6.263,7.66,5.798c5.146-0.455,5.64-6.55,5.997-9.608
		c0.336-3.058,4.967-11.528,2.691-13.349c-2.236-1.801-8.629,7.244-11.558,7.284C159.673,316.849,146.176,313.128,146.157,320.115z"
		/>
	<path fill="#CA0080" d="M121.08,64.81c-1.187,5.501,5.126,6.194,7.897,6.076c3.84-0.158,9.896,2.82,12.073,4.591
		c2.196,1.761,7.045,1.643,8.352-1.742c1.325-3.394-10.332-9.569-15.754-9.658C128.225,63.999,122.565,58.002,121.08,64.81z"/>
	<path fill="#CA0080" d="M160.96,65.562c4.433,3.186,7.5-1.148,9.915-3.899c2.434-2.751,6.136-6.887,9.005-8.787
		c2.849-1.89,4.651-5.956,0.772-6.253C176.793,46.306,152.924,59.783,160.96,65.562z"/>
	<path fill="#CA0080" d="M203.016,76.171c-0.93,2.484-2.315,7.164,2.216,7.619c4.553,0.436,7.184-2.83,7.56-5.571
		c0.357-2.76,1.96-5.789,1.939-6.68C214.713,70.629,204.817,71.42,203.016,76.171z"/>
	<path fill="#CA0080" d="M241.787,64.296c0.673,4.018,4.116,4.502,7.856,4.452c3.741-0.079,8.372-2.77,11.083-2.295
		c2.731,0.494,5.304,1.088,6.709,0.277c1.425-0.821,3.839-3.908,2.633-5.739C268.86,59.15,240.124,54.281,241.787,64.296z"/>
	<path fill="#CA0080" d="M258.727,102.888c2.078,1.425,7.462,0.039,9.539-2.157c2.059-2.217,9.856-9.46,10.766-11.321
		c0.911-1.88,1.603-3.048-0.553-3.424C276.302,85.621,250.218,97.129,258.727,102.888z"/>
	<path fill="#CA0080" d="M250.099,111.319c0.395,3.365,1.919,6.412,7.421,6.908c5.482,0.514,8.926,0.455,13.2-0.515
		c4.275-0.99,10.292-2.791,7.541-7.165C275.49,106.194,249.307,104.174,250.099,111.319z"/>
	<path fill="#CA0080" d="M301.101,86.145c0.455,5.967,6.728,6.195,9.797,6.353c3.107,0.139,8.49,1.039,12.685,1.148
		c4.176,0.098,6.452-2.207,5.938-4.038C329.006,87.788,300.329,76.111,301.101,86.145z"/>
	<path fill-rule="evenodd" clip-rule="evenodd" fill="#231815" d="M287.465,243.385c1.246,2.257-0.336,4.512-1.188,5.225
		c-1.761,1.445-4.157,2.504-6.373,4.157c-3.918,2.949-8.945,10.984-12.568,5.542C263.576,252.666,283.031,235.033,287.465,243.385z"
		/>
	<path fill-rule="evenodd" clip-rule="evenodd" fill="#E51711" d="M285.089,246.215c-1.663,2.336-5.7,3.721-8.312,5.868
		c-2.296,1.9-3.8,5.116-5.938,5.255c-0.237,0-1.028-0.346-1.009-1.227c0.099-3.958,10.371-13.458,15.18-12.409
		C286.158,244.136,285.525,245.621,285.089,246.215z"/>
	<path fill-rule="evenodd" clip-rule="evenodd" fill="#231815" d="M263.636,296.979c-0.396-0.614-0.831-2.533-0.574-3.127
		c2.513-5.72,7.243-1.663,13.141,2.296c3.226,2.177,13.023,5.897,8.689,10.449c-4.354,4.533-13.993-2.573-18.01-5.779
		C265.675,299.819,264.506,298.483,263.636,296.979z"/>
	<path fill-rule="evenodd" clip-rule="evenodd" fill="#65BEA0" d="M280.953,301.531c-6.452-2.296-10.964-8.352-14.329-7.363
		c-0.613,0.278-0.752,0.832-0.692,1.059c0.831,3.177,4.828,4.859,7.303,6.403c2.751,1.672,7.046,5.156,9.5,2.592
		C283.189,302.501,281.705,301.798,280.953,301.531z"/>
	<path fill-rule="evenodd" clip-rule="evenodd" fill="#231815" d="M295.539,322.648c4.81,4.255-2.117,8.966-5.185,13.933
		c-2.652,4.324-7.085,13.567-12.112,8.262c-0.692-0.742-1.148-1.672-1.188-3.493C276.916,335.859,289.839,317.601,295.539,322.648z"
		/>
	<path fill-rule="evenodd" clip-rule="evenodd" fill="#00AAE1" d="M294.747,326.488c-1.742,3.404-4.691,5.056-6.649,8.293
		c-1.742,2.85-2.692,7.688-6.967,8.213c-3.543-1.375,1.029-6.858,2.909-9.549c2.216-3.177,4.354-7.095,8.312-9.252
		C293.758,323.736,294.985,325.617,294.747,326.488z"/>
	<path fill-rule="evenodd" clip-rule="evenodd" fill="#231815" d="M148.512,133.466c0.673,1.246-0.099,2.77-0.455,3.028
		c-2.732,1.979-7.442,3.553-11.598,4.542c-6.373,1.495-12.488,1.109-12.013-4.562c0.297-1.138,2.394-1.919,3.522-2.632
		c-4.373-5.235-7.857-12.232-2.038-14.032c4.67-1.464,7.342,7.818,11.657,12.845C141.09,132.06,146.888,129.606,148.512,133.466z"/>
	<path fill-rule="evenodd" clip-rule="evenodd" fill="#EB6D4E" d="M125.97,122.442c-4.236,2.276,8.015,18.425,10.766,15.734
		c1.84-1.821-6.057-9.45-7.085-13.607C129.215,122.857,127.731,121.512,125.97,122.442z"/>
	<path fill-rule="evenodd" clip-rule="evenodd" fill="#231815" d="M269.93,320.887c1.603,1.177,2.573,4.294,0.831,6.847
		c-1.385,2.009-6.591,2.099-12.092,3.771c-7.303,2.226-11.717,2.226-13.795-0.901c-4.492-6.689,6.65-6.689,11.895-8.46
		C262.013,320.372,267.753,319.264,269.93,320.887z"/>
	<path fill-rule="evenodd" clip-rule="evenodd" fill="#FFFFFF" d="M146.394,135.108c-2.652,1.88-4.967,2.197-7.442,3.364
		c0.357-1.167,0.218-2.425-0.178-3.74C141.228,134.613,145.523,131.298,146.394,135.108z"/>
	<path fill-rule="evenodd" clip-rule="evenodd" fill="#FFF000" d="M268.821,323.252c1.445,2.187-1.86,3.829-7.164,4.839
		c-5.284,1.009-17.178,4.948-14.803-0.079c1.246-2.652,5.66-1.989,9.104-2.701c3.879-0.802,8.708-3.256,12.033-2.691
		C268.148,322.648,268.663,323.024,268.821,323.252z"/>
	<path fill-rule="evenodd" clip-rule="evenodd" fill="#231815" d="M108.91,91.568c5.343,4.117-2.099,8.391-4.987,12.963
		c-2.039,3.226-2.811,7.956-5.146,9.183c-2.573,1.366-5.344-0.474-6.432-2.721c-1.622-3.335,4.097-13.368,8.688-17.297
		C104.159,90.994,106.792,89.944,108.91,91.568z"/>
	<path fill-rule="evenodd" clip-rule="evenodd" fill="#231815" d="M232.921,282.986c0.85,0.99,2.058,3.088,1.167,4.711
		c-2.751,4.77-9.915,1.939-12.903,1.86c-3.384-0.079-9.738,1.425-12.41-1.564c-1.504-1.682-2.236-4.473-0.316-6.432
		c2.751-2.751,8.213-2.008,11.716-1.86C225.083,279.899,229.873,279.346,232.921,282.986z"/>
	<path fill-rule="evenodd" clip-rule="evenodd" fill="#FFFFFF" d="M96.026,111.062c-3.958-2.968,4.215-14.982,9.836-16.921
		c1.504-0.574,1.86,0.673,1.84,1.128c-0.079,3.068-3.859,5.047-5.521,7.541c-1.781,2.612-2.533,5.719-4.334,7.955
		C97.629,111.042,96.599,111.597,96.026,111.062z"/>
	<path fill-rule="evenodd" clip-rule="evenodd" fill="#FFFFFF" d="M210.497,285.579c-0.297-0.257-0.851-1.425-0.139-1.96
		c3.8-2.928,19.791-2.197,21.117,1.326c1.524,4.186-8.669,2.602-10.332,2.573C217.088,287.38,213.446,288.261,210.497,285.579z"/>
	<path fill-rule="evenodd" clip-rule="evenodd" fill="#D2CAC4" d="M132.203,139.166c-1.96,0.554-5.007,0.712-5.284-1.534
		c0.238-1.098,0.871-1.574,1.979-1.711C130.007,136.988,131.155,137.859,132.203,139.166z"/>
	<path fill-rule="evenodd" clip-rule="evenodd" fill="#231815" d="M139.031,169.97c6.492,5.739-3.977,10.44-9.104,11.925
		c-4.018,1.207-8.906,1.682-11.321,1.771c-4.176,0.129-12.191-4.146-6.808-9.213c2.514-2.385,8.154-1.801,12.112-2.94
		C129.789,169.841,135.192,166.566,139.031,169.97z"/>
	<path fill-rule="evenodd" clip-rule="evenodd" fill="#66BE96" d="M138.458,174.077c-2.969,3.463-8.945,4.691-13.497,5.66
		c-3.978,0.851-10.589,2.791-11.638-1.979c0.693-2.554,7.541-2.276,11.221-3.247c3.899-1.049,7.481-3.028,11.519-3.433
		C137.547,171.108,138.537,172.829,138.458,174.077z"/>
	<path fill-rule="evenodd" clip-rule="evenodd" fill="#231815" d="M214.574,340.352c1.227,1.267,2.672,3.374,0.673,5.62
		c-3.305,3.691-9.44,2.662-13.596,2.435c-4.275-0.238-11.103,0-12.864-4.315c-2.751-6.808,8.827-4.987,12.488-4.799
		C206.341,339.5,211.11,336.769,214.574,340.352z"/>
	<path fill-rule="evenodd" clip-rule="evenodd" fill="#231815" d="M85.754,144.251c1.208,1.247,2.672,3.405,0.594,5.581
		c-3.225,3.424-7.362,0.633-10.252,0.613c-3.939-0.04-11.815,4.711-13.794-2.117c-0.396-1.426,0.811-3.82,2.157-4.918
		C69.308,139.502,81.756,140.194,85.754,144.251z"/>
	<path fill-rule="evenodd" clip-rule="evenodd" fill="#231815" d="M158.446,255.853c1.999,1.96,2.514,5.106,3.919,8.252
		c1.998,4.493,7.204,9.58,3.958,12.449c-3.721,3.314-8.669-1.673-11.34-6.027c-2.85-4.641-5.423-13.566-1.623-15.941
		C155.617,253.142,156.903,254.329,158.446,255.853z"/>
	<path fill-rule="evenodd" clip-rule="evenodd" fill="#EB6D4E" d="M212.655,341.519c1.662,1.049,0.138,2.573-0.396,2.82
		c-2.691,1.316-5.779,1.158-8.827,1.188c-2.612,0.05-5.264,0.415-7.461-0.139c-1.781-0.426-4.018-0.841-4.394-3.216
		c-0.06-2.137,5.521-0.791,9.994-0.663C204.659,341.598,210.338,339.638,212.655,341.519z"/>
	<path fill-rule="evenodd" clip-rule="evenodd" fill="#FFF000" d="M84.21,146.864c0.356,0.861-0.515,1.762-0.93,1.92
		c-2.276,0.87-3.86-0.654-6.412-0.871c-2.83-0.227-10.351,2.672-11.696,0.475c-2.415-3.997,6.867-4.433,8.628-4.492
		C78.174,143.757,82.865,143.915,84.21,146.864z"/>
	<path fill-rule="evenodd" clip-rule="evenodd" fill="#7FC7EF" d="M164.483,273.646c-0.041,0.277-0.753,0.732-0.971,0.682
		c-5.561-1.425-10.865-12.181-9.044-16.99c0.079-0.238,0.771-0.614,0.989-0.575c3.305,0.772,3.76,6.591,5.818,10.351
		C162.503,269.331,164.918,271.468,164.483,273.646z"/>
	<path fill-rule="evenodd" clip-rule="evenodd" fill="#231815" d="M144.394,261.454c1.366,1.287,3.008,4.246,0.772,6.274
		c-3.642,3.354-15.041,1.059-18.703-0.12c-3.899-1.226-9.994-5.996-5.007-9.895c2.494-1.939,7.758-0.06,11.241,0.752
		C136.815,259.416,142.119,259.317,144.394,261.454z"/>
	<path fill-rule="evenodd" clip-rule="evenodd" fill="#FFF000" d="M143.188,264.601c-1.109-3.226-6.908-2.385-10.984-3.206
		c-3.107-0.614-8.194-2.821-9.479-1.326c-1.96,2.257,3.087,4.829,4.394,5.264c3.879,1.366,10.628,2.078,14.903,0.871
		C142.495,266.065,143.464,265.432,143.188,264.601z"/>
	<path fill-rule="evenodd" clip-rule="evenodd" fill="#231815" d="M159.614,322.154c-3.958,0.098-9.5,2.513-11.638-2.375
		c-2.849-6.501,11.163-6.769,14.646-7.521c2.513-2.315,1.801-5.324,5.561-6.927c2.236-0.99,5.502,0.357,5.976,3.355
		c0.257,1.652-1.959,4.027-2.652,6.244c-0.534,1.751,0.218,1.998-0.277,3.493c-0.238,0.683-1.564,1.356-1.92,1.831
		c-1.722,2.216-1.128,5.838-3.76,7.432C162.385,329.615,158.19,326.685,159.614,322.154z"/>
	<path fill-rule="evenodd" clip-rule="evenodd" fill="#231815" d="M169.094,307.468c-1.564,0.554-2.374,3.206-2.83,4.829
		c1.009,0.357,1.92,0.91,2.949,1.059C171.093,311.535,172.676,306.122,169.094,307.468z"/>
	<path fill-rule="evenodd" clip-rule="evenodd" fill="#FFF000" d="M169.212,313.356c-1.028-0.149-1.939-0.702-2.949-1.059
		c0.456-1.623,1.267-4.275,2.83-4.829C172.676,306.122,171.093,311.535,169.212,313.356z"/>
	<path fill-rule="evenodd" clip-rule="evenodd" fill="#231815" d="M115.737,231.787c1.86,2.336,4.612,6.273,0.475,8.956
		c-4.275,2.781-7.402-2.959-11.855-6.858c-3.048-2.652-13.972-6.649-9.263-11.666C100.617,216.351,111.482,226.493,115.737,231.787z
		"/>
	<path fill-rule="evenodd" clip-rule="evenodd" fill="#FFFFFF" d="M97.391,225.87c-0.297-0.436-1.267-1.722,0.712-2.415
		c4.473-1.603,12.349,5.621,15.239,8.808c1.464,1.622,3.681,4.957,1.464,6.373c-2.612,1.682-6.887-4.968-9.263-7.026
		C102.675,229.076,99.291,228.71,97.391,225.87z"/>
	<path fill-rule="evenodd" clip-rule="evenodd" fill="#66BE96" d="M151.381,317.472c5.225-2.266,11.321-3.294,16.387-1.553
		c0.316,0.208,0.474,1,0.237,1.237c-1.9,1.871-5.897,1.316-8.748,1.9c-2.652,0.505-6.61,2.464-8.273,0
		C150.787,318.739,150.669,317.858,151.381,317.472z"/>
	<path fill-rule="evenodd" clip-rule="evenodd" fill="#FFF000" d="M166.145,320.609c-0.633,1.692-0.198,5.423-3.305,5.176
		c-1.464-0.921-0.395-3.078-0.415-4.592C163.691,320.887,164.918,320.728,166.145,320.609z"/>
	<path fill-rule="evenodd" clip-rule="evenodd" fill="#231815" d="M78.312,208.038c2.533,3.226-1.147,6.977-3.483,11.183
		c-1.999,3.661-2.791,8.707-5.146,10.35c-4.473,3.137-7.857-2.177-7.581-6.194c0.297-3.879,3.86-11.261,7.679-14.764
		C72.632,206.039,75.72,204.773,78.312,208.038z"/>
	<path fill-rule="evenodd" clip-rule="evenodd" fill="#7FC7EF" d="M67.408,227.552c-4.612-1.998-2.059-7.085-0.496-10.123
		c1.505-2.899,3.702-6.383,6.511-8.302c1.682-1.05,2.612,0,2.85,0.534c1.148,2.652-3.424,7.293-5.087,10.746
		C69.782,223.357,69.703,226.246,67.408,227.552z"/>
	<path fill-rule="evenodd" clip-rule="evenodd" fill="#231815" d="M102.853,266.402c4.75,4.215,0.851,7.818,0.535,13.231
		c-0.199,3.553,1.82,12.438-4.691,12.102c-1.326-0.06-3.365-1.643-4.592-4.136c-1.365-2.77-0.949-9.242,0.199-14.427
		C94.937,270.419,98.341,262.404,102.853,266.402z"/>
	<path fill-rule="evenodd" clip-rule="evenodd" fill="#FFFFFF" d="M100.399,288.291c-0.494,0.524-1.404,0.455-1.662,0.316
		c-3.326-1.603-3.088-7.006-2.83-10.192c0.297-3.365,0.93-7.68,3.304-9.54c0.257-0.177,1.109-0.484,1.603-0.316
		c3.642,1.336,0.041,7.956,0,12.093C100.814,283.759,101.962,286.608,100.399,288.291z"/>
	<path fill-rule="evenodd" clip-rule="evenodd" fill="#231815" d="M128.088,308.755c1.583,1.742,2.513,4.097,0.118,6.175
		c-4.295,3.701-20.365-1.623-22.978-7.897c-0.594-1.405-0.237-3.959,1.327-5.166c3.246-2.552,7.856,0.911,10.904,2.157
		C121.477,305.677,125.435,305.825,128.088,308.755z"/>
	<path fill-rule="evenodd" clip-rule="evenodd" fill="#EB6D4E" d="M126.563,311.862c0.098,0.772-0.99,1.415-1.465,1.465
		c-4.749,0.613-13.774-2.504-16.782-7.006c-0.317-0.485-0.515-1.96,0.436-2.336c2.256-0.95,5.323,1.524,8.034,2.573
		C120.131,307.845,126.049,308.438,126.563,311.862z"/>
	<path fill-rule="evenodd" clip-rule="evenodd" fill="#231815" d="M279.647,109.241c-0.099,4.057-8.629,5.512-13.755,6.156
		c-4.136,0.514-10.371,0.97-12.865-1.95c-1.88-2.168-1.603-4.681-0.415-5.908c2.533-2.612,7.045-1.544,11.103-1.92
		C270.108,105.015,279.845,101.176,279.647,109.241z"/>
	<path fill-rule="evenodd" clip-rule="evenodd" fill="#E51711" d="M277.133,109.043c0.06,1.049-2.573,1.484-5.739,2.058
		c-2.434,0.446-5.264,1.129-6.986,1.277c-3.642,0.317-10.114,0.999-9.896-1.969c0.178-2.949,5.957-1.871,9.539-2.296
		c4.057-0.455,10.272-1.583,10.826-1.583C276.045,106.53,276.975,107.203,277.133,109.043z"/>
	<path fill-rule="evenodd" clip-rule="evenodd" fill="#231815" d="M262.844,140.808c4.512-5.739,17.455-9.955,23.155-6.343
		c1.643,1.03,2.692,2.731,2.791,5.185c-0.297,3.236-7.679,2.346-12.468,3.988c-3.959,1.325-8.154,5.027-11.559,4.087
		C259.638,146.735,261.973,141.917,262.844,140.808z"/>
	<path fill-rule="evenodd" clip-rule="evenodd" fill="#7FC7EF" d="M284.219,136.77c0.811,0.376,2.058,0.456,1.662,2.157
		c-0.316,1.445-10.43,1.129-15.298,4.215c-1.723,1.109-4.533,3.82-6.077,1.326c-0.811-1.286,0.475-3.305,2.336-4.631
		C270.345,137.305,279.963,134.831,284.219,136.77z"/>
	<path fill-rule="evenodd" clip-rule="evenodd" fill="#231815" d="M329.5,84.859c1.326,1.583,3.404,4.691,0.218,6.808
		c-3.444,2.266-7.62-2.998-13.933-3.088c-3.088-0.06-9.263,1.356-11.756-2.929c-4.057-6.996,8.451-6.373,11.974-5.976
		C321.109,80.247,325.819,80.623,329.5,84.859z"/>
	<path fill-rule="evenodd" clip-rule="evenodd" fill="#7FC7EF" d="M328.59,88.995c-1.227,2.087-7.126-1.831-10.905-2.464
		c-3.681-0.633-11.083,1.019-11.717-2.335c-0.673-3.355,13.953-3.374,19.336,0.395C326.651,85.511,329.818,86.917,328.59,88.995z"/>
	<path fill-rule="evenodd" clip-rule="evenodd" fill="#231815" d="M280.419,83.552c-0.08,2.473-3.127,4.176-6.274,6.867
		c-3.819,3.236-6.313,7.758-9.025,9.371c-2.554,1.534-5.681,1.584-7.046-1.494c-1.742-3.919,6.986-14.23,13.161-17.555
		C274.719,78.822,279.152,78.644,280.419,83.552z"/>
	<path fill-rule="evenodd" clip-rule="evenodd" fill="#231815" d="M224.925,47.612c2.593,3.067,6.313,7.61,1.643,10.133
		c-4.77,2.554-8.134-4.829-13.379-8.589c-3.325-2.365-6.63-2.009-8.214-5.384c-1.068-2.296,0.317-4.79,1.366-5.571
		C211.783,34.213,220.768,42.713,224.925,47.612z"/>
	<path fill-rule="evenodd" clip-rule="evenodd" fill="#7FC7EF" d="M225.618,54.865c-2.692,2.018-6.077-3.76-8.748-6.224
		c-2.652-2.444-6.056-3.345-8.629-5.215c-0.515-0.366-3.127-1.91,0.139-3.136c3.958-1.495,14.487,7.006,16.803,11.736
		C225.637,52.975,226.409,53.905,225.618,54.865z"/>
	<path fill-rule="evenodd" clip-rule="evenodd" fill="#231815" d="M219.205,58.942c3.662,3.73-0.553,7.451-3.463,12.32
		c-2.533,4.255-7.441,14.705-12.013,5.532c-1.346-2.741,0.831-6.977,2.988-10.401C209.27,62.375,214.594,54.262,219.205,58.942z"/>
	<path fill-rule="evenodd" clip-rule="evenodd" fill="#FFFFFF" d="M209.171,77.348c-0.554,0.465-0.752,1.039-1.742,0.554
		c-1.009-0.465-1.464-1.455-1.543-2.346c-0.257-2.326,1.543-4.77,2.573-6.689c1.623-3.029,3.602-6.551,6.649-8.649
		c1.603-0.674,2.514,0.494,2.732,1.296c0.574,2.108-3.127,6.373-4.552,8.796C211.625,73.102,210.755,75.972,209.171,77.348z"/>
	<path fill-rule="evenodd" clip-rule="evenodd" fill="#231815" d="M183.541,43.199c4.176,5.293-2.394,6.531-7.936,11.419
		c-5.264,4.671-10.945,13.121-15.041,6.452C156.587,54.598,177.783,35.836,183.541,43.199z"/>
	<path fill-rule="evenodd" clip-rule="evenodd" fill="#009A63" d="M182.374,45.612c1.286,1.426-8.748,6.67-12.627,10.51
		c-2.098,2.098-3.721,5.59-6.63,3.997C160.366,56.063,178.495,39.893,182.374,45.612z"/>
	<path fill-rule="evenodd" clip-rule="evenodd" fill="#231815" d="M195.574,107.519c0.93,1.979-0.613,3.741-1.464,4.423
		c-4.612,3.613-13.201,1.712-18.168-0.445c-2.731-1.227-9.024-5.858-5.759-9.361c3.463-3.681,8.51,0.098,14.427,1.325
		C188.786,104.342,193.536,103.185,195.574,107.519z"/>
	<path fill-rule="evenodd" clip-rule="evenodd" fill="#7FC7EF" d="M191.023,110.676c-3.701,0.961-7.976,0.525-11.3-0.563
		c-2.197-0.712-5.542-2.099-6.887-4.572c-0.238-0.415-1.327-1.751,1.286-2.118c3.029-0.455,7.105,2.355,10.826,2.87
		c2.949,0.396,6.728-0.237,8.035,1.643C193.774,109.043,192.566,110.27,191.023,110.676z"/>
	<path fill-rule="evenodd" clip-rule="evenodd" fill="#231815" d="M271.176,61.486c-2.909,4.037-9.162,1.256-13.933,1.82
		c-3.998,0.456-11.201,4.79-13.259-2.038c-0.614-2.02,0.673-4.612,4.294-5.859c3.958-1.375,16.308-2.166,19.494-0.9
		C270.702,55.657,272.681,58.477,271.176,61.486z"/>
	<path fill-rule="evenodd" clip-rule="evenodd" fill="#231815" d="M149.184,65.473c1.325,1.474,3.483,4.344,0.97,6.719
		c-4.294,3.997-11.103-2.365-14.923-3.285c-3.186-0.792-9.737,0.603-11.379-4.888c-1.208-4.196,5.521-6.422,9.163-6.057
		C137.646,58.428,145.443,61.268,149.184,65.473z"/>
	<path fill-rule="evenodd" clip-rule="evenodd" fill="#FFF000" d="M147.898,70.629c-1.385,0.91-9.718-3.621-14.803-4.591
		c-2.415-0.436-6.531-0.06-6.749-2.494c1.385-5.818,16.03-0.099,20.939,3.225C148.333,67.462,149.243,69.738,147.898,70.629z"/>
	<path fill-rule="evenodd" clip-rule="evenodd" fill="#231815" d="M149.876,213.906c-0.712,2.306-2.156,4.918-3.325,8.392
		c-0.93,2.662-0.712,7.174-3.898,8.757c-4.968,2.454-7.402-5.156-6.769-9.064c0.891-5.591,4.334-13.458,9.558-14.823
		C145.443,207.167,151.757,209.127,149.876,213.906z"/>
	<path fill-rule="evenodd" clip-rule="evenodd" fill="#E51711" d="M140.516,228.976c-4.691-5.7-0.91-15.08,4.987-18.751
		c3.681,1.909,0.02,7.135-1.009,10.717C143.485,224.385,143.385,228.235,140.516,228.976z"/>
	<path fill-rule="evenodd" clip-rule="evenodd" fill="#231815" d="M318.576,279.385c-4.928,3.819-11.083,5.283-13.062-0.228
		c-0.87-2.454,1.524-3.908,3.8-4.641c2.257-0.743,4.908-3.355,8.312-2.098C321.03,273.685,322.435,276.139,318.576,279.385z"/>
	<path fill-rule="evenodd" clip-rule="evenodd" fill="#FFF000" d="M308.502,277.702c0.436-0.395,2.672-1.395,4.354-2.077
		c2.157-0.891,4.057-1.979,5.265-0.772c0.198,0.187,0.395,0.436,0.059,1.188c-0.949,2.216-9.024,6.531-10.291,3.543
		C307.453,278.593,308.047,278.119,308.502,277.702z"/>
	<path fill="#00AAE1" d="M312.302,82.919c1.484,0.791,4.295,0.96,6.453,1.919c2.137,0.95,3.206,0.871,4.986,2.672
		c1.802,1.821-1.84,0.534-1.84,0.534s-3.463-1.523-6.352-1.662c-1.129-0.05-6.116,0.415-7.165-0.02
		c-1.049-0.465-3.028-1.207-2.415-2.731C306.622,82.108,309.868,81.632,312.302,82.919z"/>
	<path fill="#00AAE1" d="M266.743,140.046c0,0,3.82,1.79,7.66,0.505c3.86-1.326,7.996-1.722,8.945-1.287
		c0.951,0.426-1.821,1.129-2.672,1.089c-0.831-0.06-5.125,0.455-7.876,1.909c-2.731,1.416-6.749,5.354-8.669,1.95
		C263.24,142.688,266.743,140.046,266.743,140.046z"/>
	<path fill="#00AAE1" d="M207.468,42.961c1.208,1.534,5.106,1.96,8.847,5.324c3.74,3.405,5.758,6.452,6.946,6.194
		c1.208-0.237,2.217-0.949-1.267-3.958c-3.483-3.009-8.312-6.215-10.865-7.382C208.577,41.951,205.707,40.724,207.468,42.961z"/>
	<path fill="#D2CAC4" d="M206.083,73.36c0,0,1.069,3.543,2.612,2.157c1.524-1.405,3.068-2.415,3.068-2.415s-2.276,6.254-4.493,4.919
		C205.015,76.685,206.083,73.36,206.083,73.36z"/>
	<path fill="#007147" d="M179.88,48.611c0,0-5.463,1.019-8.866,4.908c-3.424,3.879-5.997,5.818-6.808,5.571
		c-0.93-0.277-1.306-0.742-1.306-0.742s-1.049,2.563,1.999,2.187c3.028-0.366,3.819-3.681,6.373-5.601
		C173.784,52.975,179.88,48.611,179.88,48.611z"/>
	<path fill="#00AAE1" d="M172.3,104.649c0.178-0.791,1.208-0.554,2.969,0.446c1.761,1.029,7.224,3.958,8.767,4.027
		c1.524,0.06,7.303,0.733,6.353,1.385c-1.326,0.891-5.72,1.426-11.221-0.514C173.686,108.034,171.964,106.371,172.3,104.649z"/>
	<path fill="#E51711" d="M125.435,123.105c-1.207,0.762,0.535,4.74,1.96,6.937c2.87,4.423,6.63,8.49,7.402,8.252
		c0.791-0.237-1.623-3.285-3.662-5.739C129.097,130.071,126.603,122.343,125.435,123.105z"/>
	<path fill="#BDA200" d="M65.072,148.289c2.473,2.513,6.709,0.098,9.321-0.218c2.593-0.317,7.184,1.445,8.214,0.91
		c1.068-0.554,0.732-1.682-2.355-2.484c-3.048-0.822-5.918-0.901-8.293-0.623c-2.336,0.267-4.849,0.949-5.304,0.257
		C66.2,145.439,63.806,147.013,65.072,148.289z"/>
	<path fill="#00AAE1" d="M66.854,217.547c0,0-0.218,2.88,0.97,3.474c0.989,0.484,4.433-10.994,7.461-9.48
		c1.92,0.99-2.375,5.77-2.988,6.927c-1.979,3.623-3.404,9.777-5.521,9.322C61.787,225.226,66.854,217.547,66.854,217.547z"/>
	<path fill="#D2CAC4" d="M96.283,275.515c0,0,1.464,4.562,2.019,6.304c0.574,1.761,1.96,4.463,2.554,2.791
		c0.653-1.811,1.029,4.215-1.564,4.215C94.145,288.034,96.026,277.02,96.283,275.515z"/>
	<path fill="#E51711" d="M108.078,305.607c0.594,1.584,3.048,3.8,6.294,5.444c3.959,1.979,8.194,2.276,9.5,2.414
		c1.9,0.199,4.117-1.662,1.089-1.662c-3.029,0-8.411-1.455-11.578-3.978C110.216,305.312,107.643,304.539,108.078,305.607z"/>
	<path fill="#009A63" d="M153.202,318.294c1.286,0.218,8.352-1.346,10.073-1.682c1.722-0.317,4.73-0.06,4.79,0.178
		c0.098,0.257-0.357,1.088-2.771,1.761c-1.088,0.277-3.424,0.297-4.928,0.475c-1.464,0.177-4.413,1.365-6.61,1.306
		c-3.167-0.06-2.712-1.623-2.89-2.138C150.867,318.195,151.5,317.978,153.202,318.294z"/>
	<path fill="#C60019" d="M138.655,220.606c-0.178,1.088-0.257,7.995,1.86,8.371c2.078,0.396,2.217-2.513,2.791-3.126
		c0.594-0.614-1.188,0.415-1.88-0.099C140.754,225.236,138.794,219.655,138.655,220.606z"/>
	<path fill="#00AAE1" d="M154.785,257.06c-0.633-0.514-1.701,5.403,1.663,10.648c3.404,5.225,6.728,7.006,7.402,6.491
		c0.653-0.495-1.881-1.306-3.959-3.483c-2.098-2.167-4.413-7.392-4.73-9.618C154.845,258.901,155.339,257.496,154.785,257.06z"/>
	<path fill="#BDA200" d="M126.801,265.333c4.176,1.505,8.431,1.484,10.133,1.465c1.761-0.06,5.027-0.119,5.463-0.93
		c0.356-0.723-0.278-0.535-1.86-0.515c-1.603,0.019-8.194,0.099-10.608-0.712c-2.434-0.812-4.73-1.821-6.017-3.127
		c-1.286-1.287-1.682-1.088-1.643-0.534C122.268,260.98,121.932,263.592,126.801,265.333z"/>
	<path fill="#D2CAC4" d="M96.896,224.632c0.04,1.495,1.663,2.89,3.503,3.949c1.841,1.069,4.433,2.305,5.502,3.582
		c1.069,1.256,5.878,6.363,7.085,6.729c1.385,0.426,2.533-0.554,2.415-1.247c-0.139-0.673-1.069,0.515-3.285-1.534
		c-2.157-2.048-5.601-6.184-7.481-6.975c-1.88-0.812-5.482-3.474-5.779-3.939C98.539,224.722,96.856,223.119,96.896,224.632z"/>
	<path fill-rule="evenodd" clip-rule="evenodd" fill="#FFFFFF" d="M277.509,83.216c0.456,2.048-4.136,3.76-6.214,5.442
		c-3.939,3.167-7.521,10.746-9.856,9.479c-2.573-1.791,3.661-9.203,7.363-12.27c1.979-1.623,4.67-3.325,7.104-3.918
		C276.738,82.018,277.094,82.286,277.509,83.216z"/>
	<path fill-rule="evenodd" clip-rule="evenodd" fill="#FFF000" d="M268.781,60.417c-5.64,2.394-5.205-1.04-16.228,1.188
		c-1.069,0.218-4.513,2.127-5.502,0.426c-1.939-3.316,6.055-4.958,8.827-5.156c5.7-0.396,8.708-0.436,12.33,0.098
		C270.444,58.239,269.157,60.407,268.781,60.417z"/>
	<path fill="#BDA200" d="M247.407,59.704c0,0,0.377,1.524,1.644,1.188c1.286-0.336,8.312-1.723,10.152-1.752
		c1.801-0.04,8.966,1.416,7.718,1.91c-1.267,0.494-2.909,0.436-4.987,0.019c-3.325-0.692-6.946,0.208-8.273,0.446
		c-2.335,0.405-5.501,1.969-6.352,0.94C246.457,61.426,246.239,60.842,247.407,59.704z"/>
	<path fill-rule="evenodd" clip-rule="evenodd" fill="#BDA200" d="M147.898,70.629c0.317-0.208,0.495-0.494,0.594-0.831
		c-0.455-0.376-0.91-0.683-1.108-0.792c-0.515-0.287-7.897-3.958-8.887-4.294c-0.97-0.356-9.836-1.227-10.37-1.781
		c-0.218-0.257-0.614-0.505-0.99-0.732c-0.376,0.356-0.653,0.791-0.791,1.346c0.218,2.434,4.334,2.058,6.749,2.494
		C138.18,67.007,146.512,71.539,147.898,70.629z"/>
	<path fill-rule="evenodd" clip-rule="evenodd" fill="#E51711" d="M203.431,345.526c3.048-0.029,6.136,0.129,8.827-1.188
		c0.237-0.108,0.673-0.484,0.93-0.949c-1.663-0.327-5.384-0.851-6.136-0.722c-0.891,0.158-10.548-0.208-11.558-0.228
		c-0.654-0.01-2.197-0.712-3.246-1.198c-0.436,0.169-0.712,0.475-0.673,0.93c0.376,2.375,2.612,2.791,4.394,3.216
		C198.167,345.942,200.819,345.576,203.431,345.526z"/>
	<path fill="#BDA200" d="M268.821,323.252c-0.059-0.089-0.158-0.168-0.257-0.268c-0.495,0.347-0.91,1.069-2.434,1.603
		c-3.088,1.088-9.579,2.89-10.964,3.146c-3.642,0.654-6.65,0.713-8.035-0.129c-0.099,0.129-0.218,0.238-0.277,0.406
		c-2.375,5.027,9.519,1.088,14.803,0.079C266.961,327.081,270.266,325.439,268.821,323.252z"/>
	<path fill-rule="evenodd" clip-rule="evenodd" fill="#7FC7EF" d="M293.105,325.953c0.436-0.753-0.733-1.208-1.801-1.109
		c-3.285,2.236-5.265,5.7-7.263,8.599c-0.535,0.762-1.306,1.781-2.039,2.84c-0.376,1.246-0.812,2.504-1.03,3.057
		c-0.514,1.227,0.218,2.02,0.515,2.246c0.336,0.218,3.681-5.69,4.117-6.51C285.98,334.206,292.629,326.824,293.105,325.953z"/>
	<path fill-rule="evenodd" clip-rule="evenodd" fill="#BDA200" d="M318.18,276.04c0.336-0.752,0.139-1-0.059-1.188
		c-0.099-0.118-0.238-0.178-0.357-0.257c-0.949,0.831-3.167,2.593-4.73,3.463c-1.742,0.91-4.334,0.495-5.146,0.357
		c-0.158,0.277-0.218,0.663,0,1.167C309.155,282.571,317.23,278.256,318.18,276.04z"/>
	<path fill-rule="evenodd" clip-rule="evenodd" fill="#D2CAC4" d="M262.013,96.506c-0.218-0.237-0.554-0.801-0.812-1.267
		c-0.495,1.296-0.554,2.346,0.237,2.899c2.336,1.267,5.918-6.313,9.856-9.479c1.761-1.405,5.244-2.85,6.056-4.502
		c-1.128,0.069-3.839,0.841-6.294,2.998c-2.355,2.077-5.007,5.363-6.174,6.828C263.715,95.427,262.409,96.931,262.013,96.506z"/>
	<path fill-rule="evenodd" clip-rule="evenodd" fill="#C60019" d="M271.394,111.101c3.127-0.574,5.7-1.009,5.7-2.018
		c-0.415-0.158-0.891-0.237-1.108-0.178c-0.496,0.178-6.947,0.871-9.52,1.366c-2.593,0.494-6.57,1.009-8.966,0.87
		c-2.157-0.138-2.295-1.147-2.849-1.346c-0.079,0.178-0.119,0.396-0.139,0.614c-0.218,2.968,6.254,2.286,9.896,1.969
		C266.13,112.23,268.96,111.547,271.394,111.101z"/>
	<path fill-rule="evenodd" clip-rule="evenodd" fill="#009A63" d="M282.734,304.203c-2.612,0.524-5.641-2.375-8.015-3.8
		c-2.474-1.544-6.096-3.405-7.639-5.918c-0.06-0.079-0.02-0.257,0.04-0.396c-0.159,0.02-0.336,0.03-0.496,0.079
		c-0.613,0.278-0.752,0.832-0.692,1.059c0.831,3.177,4.828,4.859,7.303,6.403c2.751,1.672,7.046,5.156,9.5,2.592V304.203z"/>
	<path fill="#009A63" d="M113.738,178.876c1.267,2.306,3.444,2.346,8.708,1.435c6.591-1.148,12.191-2.394,15.2-5.284
		c2.85-2.76-2.889-0.86-3.503-0.465c-0.812,0.525-8.966,2.425-10.905,2.524C120.21,177.243,113.105,177.698,113.738,178.876z"/>
	<path fill-rule="evenodd" clip-rule="evenodd" fill="#231815" d="M276.302,164.399c5.561-4.076,10.232,1.623,15.417,1.495
		c1.742-0.05,3.74,2.463,3.74,3.889c-0.079,4.631-4.433,6.313-8.985,5.106c-2.87-0.178-5.502-1.129-8.194-2.157
		C276.421,171.682,272.581,166.487,276.302,164.399z"/>
	<path fill-rule="evenodd" clip-rule="evenodd" fill="#009A63" d="M290.037,172.385c-3.365-0.544-9.321-0.278-11.617-3.444
		c-0.495-0.702-0.614-2.325,0.851-2.582c4.651-0.633,7.738,1.553,12.231,1.751C293.52,169.742,292.095,172.939,290.037,172.385z"/>
	<path fill-rule="evenodd" clip-rule="evenodd" fill="#007147" d="M292.353,170.831c-0.455,0.415-1.009,0.653-1.663,0.455
		c-3.364-0.515-9.321-0.278-11.617-3.444c-0.237-0.316-0.356-0.811-0.316-1.306c-0.891,0.505-0.772,1.811-0.336,2.405
		c2.296,3.167,8.252,2.9,11.617,3.444C291.146,172.671,292.056,171.88,292.353,170.831z"/>
</g>
</svg>
